<svg xmlns="http://www.w3.org/2000/svg" viewBox="0 0 8470 70" width="8470" height="70"><path d="M13.1 4S4 4 4 13.1v43.8S3.9 66 13.1 66h43.8s9.1-.5 9.1-9.1V13.1S65.7 4 56.9 4H13.1z" fill="none" stroke="#2e7fb0" stroke-width="6" stroke-dasharray="0,232.73539335575487" stroke-dashoffset="232.735393" stroke-miterlimit="10"/><path d="M83.1 4S74 4 74 13.1v43.8s-.1 9.1 9.1 9.1h43.8s9.1-.5 9.1-9.1V13.1s-.3-9.1-9.1-9.1H83.1z" fill="none" stroke="#2e7fb0" stroke-opacity=".000528" stroke-width="6" stroke-dasharray="0.17249382561432178,232.56289953014053" stroke-dashoffset="232.735393" stroke-miterlimit="10"/><path d="M153.1 4s-9.1 0-9.1 9.1v43.8s-.1 9.1 9.1 9.1h43.8s9.1-.5 9.1-9.1V13.1s-.3-9.1-9.1-9.1h-43.8z" fill="none" stroke="#2e7fb0" stroke-opacity=".002329" stroke-width="6" stroke-dasharray="0.7168029422751657,232.0185904134797" stroke-dashoffset="232.735393" stroke-miterlimit="10"/><path d="M223.1 4s-9.1 0-9.1 9.1v43.8s-.1 9.1 9.1 9.1h43.8s9.1-.5 9.1-9.1V13.1s-.3-9.1-9.1-9.1h-43.8z" fill="none" stroke="#2e7fb0" stroke-opacity=".005541" stroke-width="6" stroke-dasharray="1.678062014946274,231.05733134080862" stroke-dashoffset="232.735393" stroke-miterlimit="10"/><path d="M293.1 4s-9.1 0-9.1 9.1v43.8s-.1 9.1 9.1 9.1h43.8s9.1-.5 9.1-9.1V13.1s-.3-9.1-9.1-9.1h-43.8z" fill="none" stroke="#2e7fb0" stroke-opacity=".010323" stroke-width="6" stroke-dasharray="3.108850271554446,229.62654308420042" stroke-dashoffset="232.735393" stroke-miterlimit="10"/><path d="M363.1 4s-9.1 0-9.1 9.1v43.8s-.1 9.1 9.1 9.1h43.8s9.1-.5 9.1-9.1V13.1s-.3-9.1-9.1-9.1h-43.8z" fill="none" stroke="#2e7fb0" stroke-opacity=".016855" stroke-width="6" stroke-dasharray="5.070417767966426,227.66497558778843" stroke-dashoffset="232.735393" stroke-miterlimit="10"/><path d="M433.1 4s-9.1 0-9.1 9.1v43.8s-.1 9.1 9.1 9.1h43.8s9.1-.5 9.1-9.1V13.1s-.3-9.1-9.1-9.1h-43.8z" fill="none" stroke="#2e7fb0" stroke-opacity=".025344" stroke-width="6" stroke-dasharray="7.633889348185908,225.10150400756896" stroke-dashoffset="232.735393" stroke-miterlimit="10"/><path d="M503.1 4s-9.1 0-9.1 9.1v43.8s-.1 9.1 9.1 9.1h43.8s9.1-.5 9.1-9.1V13.1s-.3-9.1-9.1-9.1h-43.8z" fill="none" stroke="#2e7fb0" stroke-opacity=".036028" stroke-width="6" stroke-dasharray="10.881170928742561,221.8542224270123" stroke-dashoffset="232.735393" stroke-miterlimit="10"/><path d="M573.1 4s-9.1 0-9.1 9.1v43.8s-.1 9.1 9.1 9.1h43.8s9.1-.5 9.1-9.1V13.1s-.3-9.1-9.1-9.1h-43.8z" fill="none" stroke="#2e7fb0" stroke-opacity=".049174" stroke-width="6" stroke-dasharray="14.90499635838379,217.83039699737108" stroke-dashoffset="232.735393" stroke-miterlimit="10"/><path d="M643.1 4s-9.1 0-9.1 9.1v43.8s-.1 9.1 9.1 9.1h43.8s9.1-.5 9.1-9.1V13.1s-.3-9.1-9.1-9.1h-43.8z" fill="none" stroke="#2e7fb0" stroke-opacity=".065081" stroke-width="6" stroke-dasharray="19.807057738198992,212.92833561755586" stroke-dashoffset="232.735393" stroke-miterlimit="10"/><path d="M713.1 4s-9.1 0-9.1 9.1v43.8s-.1 9.1 9.1 9.1h43.8s9.1-.5 9.1-9.1V13.1s-.3-9.1-9.1-9.1h-43.8z" fill="none" stroke="#2e7fb0" stroke-opacity=".084069" stroke-width="6" stroke-dasharray="25.692400067685423,207.04299328806943" stroke-dashoffset="232.735393" stroke-miterlimit="10"/><path d="M783.1 4s-9.1 0-9.1 9.1v43.8s-.1 9.1 9.1 9.1h43.8s9.1-.5 9.1-9.1V13.1s-.3-9.1-9.1-9.1h-43.8z" fill="none" stroke="#2e7fb0" stroke-opacity=".106471" stroke-width="6" stroke-dasharray="32.65734894052457,200.0780444152303" stroke-dashoffset="232.735393" stroke-miterlimit="10"/><path d="M853.1 4s-9.1 0-9.1 9.1v43.8s-.1 9.1 9.1 9.1h43.8s9.1-.5 9.1-9.1V13.1s-.3-9.1-9.1-9.1h-43.8z" fill="none" stroke="#2e7fb0" stroke-opacity=".132595" stroke-width="6" stroke-dasharray="40.767862631342346,191.9675307244125" stroke-dashoffset="232.735393" stroke-miterlimit="10"/><path d="M923.1 4s-9.1 0-9.1 9.1v43.8s-.1 9.1 9.1 9.1h43.8s9.1-.5 9.1-9.1V13.1s-.3-9.1-9.1-9.1h-43.8z" fill="none" stroke="#2e7fb0" stroke-opacity=".162676" stroke-width="6" stroke-dasharray="50.02719242345129,182.70820093230358" stroke-dashoffset="232.735393" stroke-miterlimit="10"/><path d="M993.1 4s-9.1 0-9.1 9.1v43.8s-.1 9.1 9.1 9.1h43.8s9.1-.5 9.1-9.1V13.1s-.3-9.1-9.1-9.1h-43.8z" fill="none" stroke="#2e7fb0" stroke-opacity=".196797" stroke-width="6" stroke-dasharray="60.338805684825296,172.39658767092956" stroke-dashoffset="232.735393" stroke-miterlimit="10"/><path d="M1063.1 4s-9.1 0-9.1 9.1v43.8s-.1 9.1 9.1 9.1h43.8s9.1-.5 9.1-9.1V13.1s-.3-9.1-9.1-9.1h-43.8z" fill="none" stroke="#2e7fb0" stroke-opacity=".234793" stroke-width="6" stroke-dasharray="71.48241156921067,161.25298178654418" stroke-dashoffset="232.735393" stroke-miterlimit="10"/><path d="M1133.1 4s-9.1 0-9.1 9.1v43.8s-.1 9.1 9.1 9.1h43.8s9.1-.5 9.1-9.1V13.1s-.3-9.1-9.1-9.1h-43.8z" fill="none" stroke="#2e7fb0" stroke-opacity=".276168" stroke-width="6" stroke-dasharray="83.12724898032482,149.60814437543002" stroke-dashoffset="232.735393" stroke-miterlimit="10"/><path d="M1203.1 4s-9.1 0-9.1 9.1v43.8s-.1 9.1 9.1 9.1h43.8s9.1-.5 9.1-9.1V13.1s-.3-9.1-9.1-9.1h-43.8z" fill="none" stroke="#2e7fb0" stroke-opacity=".32007" stroke-width="6" stroke-dasharray="94.8909350730296,137.84445828272527" stroke-dashoffset="232.735393" stroke-miterlimit="10"/><path d="M1224.735542 16.025542l1.97845.075722c2.826358.108174 4.93295 2.382436 4.824776 5.208794l-1.138879 27.907579c-.108174 2.826358-2.382436 4.93295-5.208794 4.824776l-1.97845-.075722c-2.826358-.108174-4.93295-2.382437-4.824776-5.208794l1.070924-27.980942c.176129-2.752995 2.523754-4.927542 5.276749-4.751413z" fill="#2e7fb0" fill-opacity=".000248"/><path d="M1223.286008 16.101264l1.97845-.075722c2.826358-.108174 5.10062 1.998418 5.208795 4.824776l1.070924 27.980942c.108174 2.826358-1.998418 5.10062-4.824776 5.208794l-1.97845.075722c-2.826358.108174-5.10062-1.998418-5.208795-4.824776l-1.00297-28.054305c-.176128-2.752995 1.998419-5.10062 4.756822-5.135431z" fill="#2e7fb0" fill-opacity=".000248"/><path d="M1273.1 4s-9.1 0-9.1 9.1v43.8s-.1 9.1 9.1 9.1h43.8s9.1-.5 9.1-9.1V13.1s-.3-9.1-9.1-9.1h-43.8z" fill="none" stroke="#2e7fb0" stroke-opacity=".36538" stroke-width="6" stroke-dasharray="106.41866352888287,126.31672982687199" stroke-dashoffset="232.735393" stroke-miterlimit="10"/><path d="M1294.82182 16.024536l1.978086.084717c2.825837.121024 4.922066 2.404841 4.801042 5.230678l-1.265761 27.902112c-.121025 2.825837-2.404842 4.922066-5.230679 4.801042l-1.978086-.084717c-2.825836-.121025-4.922066-2.404842-4.801041-5.230679l1.19814-27.975783c.188645-2.752165 2.546134-4.916015 5.2983-4.72737z" fill="#2e7fb0" fill-opacity=".003146"/><path d="M1293.200094 16.109253l1.978086-.084717c2.825836-.121025 5.109654 1.975205 5.230678 4.801041l1.198141 27.975784c.121025 2.825837-1.975205 5.109654-4.801042 5.230678l-1.978085.084717c-2.825837.121025-5.109654-1.975205-5.230679-4.801042l-1.13052-28.049455c-.188645-2.752165 1.975205-5.109654 4.733421-5.157006z" fill="#2e7fb0" fill-opacity=".003146"/><path d="M1343.1 4s-9.1 0-9.1 9.1v43.8s-.1 9.1 9.1 9.1h43.8s9.1-.5 9.1-9.1V13.1s-.3-9.1-9.1-9.1h-43.8z" fill="none" stroke="#2e7fb0" stroke-opacity=".410888" stroke-width="6" stroke-dasharray="117.44182965980815,115.29356369594672" stroke-dashoffset="232.735393" stroke-miterlimit="10"/><path d="M1364.912653 16.0239l1.977658.094185c2.825225.13455 4.910498 2.428375 4.775949 5.2536l-1.399308 27.895733c-.13455 2.825225-2.428375 4.910498-5.2536 4.775949l-1.977657-.094185c-2.825225-.13455-4.910499-2.428375-4.77595-5.2536l1.332041-27.969727c.201817-2.751231 2.569637-4.903771 5.320867-4.701955z" fill="#2e7fb0" fill-opacity=".010989"/><path d="M1363.10969 16.118085l1.977657-.094185c2.825225-.13455 5.11905 1.950724 5.2536 4.775949l1.33204 27.969728c.13455 2.825225-1.950724 5.11905-4.775949 5.2536l-1.977657.094184c-2.825225.13455-5.11905-1.950724-5.2536-4.775949l-1.264774-28.043722c-.201816-2.75123 1.950724-5.11905 4.708682-5.179605z" fill="#2e7fb0" fill-opacity=".010989"/><path d="M1413.1 4s-9.1 0-9.1 9.1v43.8s-.1 9.1 9.1 9.1h43.8s9.1-.5 9.1-9.1V13.1s-.3-9.1-9.1-9.1h-43.8z" fill="none" stroke="#2e7fb0" stroke-opacity=".455499" stroke-width="6" stroke-dasharray="127.79559990883293,104.93979344692194" stroke-dashoffset="232.735393" stroke-miterlimit="10"/><path d="M1435.007976 16.0237l1.97716.104118c2.824513.14874 4.898238 2.453011 4.749498 5.277525l-1.539417 27.888352c-.14874 2.824514-2.453011 4.898238-5.277525 4.749499l-1.97716-.104118c-2.824513-.14874-4.898237-2.453011-4.749498-5.277525l1.472524-27.962683c.215634-2.750182 2.594236-4.890801 5.344418-4.675167z" fill="#2e7fb0" fill-opacity=".026264"/><path d="M1433.014864 16.127818l1.97716-.104117c2.824513-.14874 5.128784 1.924985 5.277524 4.749498l1.472523 27.962684c.14874 2.824513-1.924985 5.128784-4.749498 5.277524l-1.97716.104118c-2.824513.14874-5.128784-1.924985-5.277524-4.749498l-1.405629-28.037015c-.215634-2.750183 1.924985-5.128785 4.682604-5.203194z" fill="#2e7fb0" fill-opacity=".026264"/><path d="M1483.1 4s-9.1 0-9.1 9.1v43.8s-.1 9.1 9.1 9.1h43.8s9.1-.5 9.1-9.1V13.1s-.3-9.1-9.1-9.1h-43.8z" fill="none" stroke="#2e7fb0" stroke-opacity=".498372" stroke-width="6" stroke-dasharray="137.4045082551529,95.33088510060198" stroke-dashoffset="232.735393" stroke-miterlimit="10"/><path d="M1505.107722 16.024005l1.976585.114509c2.823693.163584 4.885277 2.478724 4.721693 5.302416l-1.685988 27.879876c-.163584 2.823692-2.478724 4.885276-5.302416 4.721692l-1.976585-.114509c-2.823693-.163584-4.885277-2.478724-4.721692-5.302417l1.619484-27.954557c.230087-2.74901 2.619909-4.877097 5.36892-4.64701z" fill="#2e7fb0" fill-opacity=".046517"/><path d="M1502.915693 16.138514l1.976585-.11451c2.823692-.163584 5.138832 1.898 5.302416 4.721693l1.619485 27.954557c.163584 2.823693-1.898 5.138833-4.721693 5.302417l-1.976584.114509c-2.823693.163584-5.138833-1.898-5.302417-4.721692l-1.552982-28.02924c-.230087-2.74901 1.898-5.138832 4.65519-5.227734z" fill="#2e7fb0" fill-opacity=".046517"/><path d="M1553.1 4s-9.1 0-9.1 9.1v43.8s-.1 9.1 9.1 9.1h43.8s9.1-.5 9.1-9.1V13.1s-.3-9.1-9.1-9.1h-43.8z" fill="none" stroke="#2e7fb0" stroke-opacity=".538962" stroke-width="6" stroke-dasharray="146.255848734955,86.47954462079987" stroke-dashoffset="232.735393" stroke-miterlimit="10"/><path d="M1575.21182 16.024881l1.975927.12535c2.822752.179073 4.871605 2.505487 4.692533 5.32824l-1.838906 27.870207c-.179072 2.822752-2.505486 4.871605-5.32824 4.692533l-1.975926-.12535c-2.822753-.179073-4.871605-2.505487-4.692533-5.32824l1.772813-27.945252c.245165-2.747707 2.646624-4.862652 5.394332-4.617488z" fill="#2e7fb0" fill-opacity=".063759"/><path d="M1572.812253 16.150232l1.975927-.12535c2.822753-.179073 5.149167 1.86978 5.32824 4.692532l1.772813 27.945253c.179072 2.822753-1.86978 5.149167-4.692533 5.328239l-1.975927.12535c-2.822753.179073-5.149167-1.86978-5.328239-4.692533l-1.706722-28.020298c-.245164-2.747707 1.86978-5.149167 4.626441-5.253193z" fill="#2e7fb0" fill-opacity=".063759"/><path d="M1623.1 4s-9.1 0-9.1 9.1v43.8s-.1 9.1 9.1 9.1h43.8s9.1-.5 9.1-9.1V13.1s-.3-9.1-9.1-9.1h-43.8z" fill="none" stroke="#2e7fb0" stroke-opacity=".57699" stroke-width="6" stroke-dasharray="154.37471585519222,78.36067750056264" stroke-dashoffset="232.735393" stroke-miterlimit="10"/><path d="M1645.320193 16.0264l1.975179.136635c2.821684.195191 4.857216 2.53327 4.662024 5.354953l-1.998057 27.85925c-.195192 2.821683-2.53327 4.857215-5.354954 4.662024l-1.975179-.136634c-2.821684-.195192-4.857215-2.53327-4.662024-5.354954l1.932395-27.934671c.260854-2.746262 2.674354-4.847456 5.420616-4.586602z" fill="#2e7fb0" fill-opacity=".075982"/><path d="M1642.704628 16.163035l1.975179-.136634c2.821684-.195192 5.159762 1.84034 5.354954 4.662024l1.932395 27.93467c.195191 2.821685-1.84034 5.159763-4.662025 5.354955l-1.975178.136634c-2.821684.195191-5.159763-1.84034-5.354954-4.662025l-1.866733-28.010093c-.260854-2.746262 1.84034-5.159762 4.596362-5.279531z" fill="#2e7fb0" fill-opacity=".075982"/><path d="M1693.1 4s-9.1 0-9.1 9.1v43.8s-.1 9.1 9.1 9.1h43.8s9.1-.5 9.1-9.1V13.1s-.3-9.1-9.1-9.1h-43.8z" fill="none" stroke="#2e7fb0" stroke-opacity=".61237" stroke-width="6" stroke-dasharray="161.80575387946757,70.92963947628728" stroke-dashoffset="232.735393" stroke-miterlimit="10"/><path d="M1715.432764 16.028634l1.974333.148351c2.820477.21193 4.8421 2.562045 4.63017 5.382521l-2.16332 27.846904c-.21193 2.820476-2.562045 4.8421-5.382521 4.63017l-1.974334-.148352c-2.820476-.21193-4.8421-2.562044-4.63017-5.38252l2.098108-27.922714c.277143-2.744666 2.703068-4.831503 5.447734-4.55436z" fill="#2e7fb0" fill-opacity=".084481"/><path d="M1712.592903 16.176985l1.974333-.14835c2.820476-.21193 5.17059 1.809693 5.38252 4.630169l2.098107 27.922714c.21193 2.820476-1.809693 5.17059-4.630169 5.38252l-1.974333.148351c-2.820476.21193-5.170591-1.809693-5.382521-4.630169l-2.032893-27.998524c-.277144-2.744666 1.809693-5.17059 4.564956-5.30671z" fill="#2e7fb0" fill-opacity=".084481"/><path d="M1763.1 4s-9.1 0-9.1 9.1v43.8s-.1 9.1 9.1 9.1h43.8s9.1-.5 9.1-9.1V13.1s-.3-9.1-9.1-9.1h-43.8z" fill="none" stroke="#2e7fb0" stroke-opacity=".645145" stroke-width="6" stroke-dasharray="168.60155322799392,64.13384012776096" stroke-dashoffset="232.735393" stroke-miterlimit="10"/><path d="M1785.54945 16.031655l1.973384.160493c2.819119.229275 4.826248 2.59178 4.596973 5.4109l-2.334567 27.83307c-.229275 2.819118-2.59178 4.826248-5.4109 4.596973l-1.973383-.160493c-2.81912-.229274-4.826249-2.59178-4.596974-5.410899l2.269821-27.90928c.294021-2.74291 2.732737-4.814785 5.475646-4.520764z" fill="#2e7fb0" fill-opacity=".090417"/><path d="M1782.477166 16.192148l1.973384-.160493c2.81912-.229275 5.181625 1.777855 5.4109 4.596974l2.26982 27.90928c.229276 2.819119-1.777854 5.181624-4.596973 5.4109l-1.973383.160492c-2.81912.229275-5.181625-1.777855-5.4109-4.596974l-2.205075-27.98549c-.294021-2.74291 1.777854-5.181624 4.532227-5.33469z" fill="#2e7fb0" fill-opacity=".090417"/><path d="M1833.1 4s-9.1 0-9.1 9.1v43.8s-.1 9.1 9.1 9.1h43.8s9.1-.5 9.1-9.1V13.1s-.3-9.1-9.1-9.1h-43.8z" fill="none" stroke="#2e7fb0" stroke-opacity=".675432" stroke-width="6" stroke-dasharray="174.81596186671294,57.91943148904191" stroke-dashoffset="232.735393" stroke-miterlimit="10"/><path d="M1855.670164 16.035536l1.972322.17305c2.817603.247212 4.809656 2.622444 4.562443 5.440047l-2.511666 27.817648c-.247213 2.817603-2.622445 4.809655-5.440048 4.562442l-1.972322-.173049c-2.817603-.247212-4.809655-2.622444-4.562442-5.440047l2.447406-27.894269c.311473-2.740982 2.763325-4.797294 5.504307-4.485822z" fill="#2e7fb0" fill-opacity=".094525"/><path d="M1852.357514 16.208585l1.972322-.173049c2.817602-.247212 5.192834 1.74484 5.440047 4.562443l2.447407 27.894268c.247212 2.817603-1.74484 5.192835-4.562443 5.440048l-1.972322.173049c-2.817603.247213-5.192835-1.74484-5.440048-4.562443l-2.383146-27.970888c-.311473-2.740983 1.74484-5.192835 4.498183-5.363428z" fill="#2e7fb0" fill-opacity=".094525"/><path d="M1903.1 4s-9.1 0-9.1 9.1v43.8s-.1 9.1 9.1 9.1h43.8s9.1-.5 9.1-9.1V13.1s-.3-9.1-9.1-9.1h-43.8z" fill="none" stroke="#2e7fb0" stroke-opacity=".703386" stroke-width="6" stroke-dasharray="180.50056681413326,52.2348265416216" stroke-dashoffset="232.735393" stroke-miterlimit="10"/><path d="M1925.794817 16.040352l1.971142.18601c2.815917.26573 4.792312 2.654006 4.526583 5.469923l-2.694478 27.800536c-.26573 2.815916-2.654006 4.792312-5.469923 4.526582l-1.971141-.18601c-2.815917-.26573-4.792312-2.654006-4.526583-5.469923l2.630723-27.877577c.329484-2.738876 2.794802-4.779026 5.533677-4.449541z" fill="#2e7fb0" fill-opacity=".097273"/><path d="M1922.23404 16.226362l1.971143-.18601c2.815917-.26573 5.204193 1.710665 5.469922 4.526582l2.630723 27.877577c.26573 2.815917-1.710666 5.204193-4.526582 5.469922l-1.971142.186011c-2.815917.26573-5.204193-1.710665-5.469923-4.526582l-2.566968-27.954618c-.329484-2.738876 1.710666-5.204193 4.462828-5.392882z" fill="#2e7fb0" fill-opacity=".097273"/><path d="M1973.1 4s-9.1 0-9.1 9.1v43.8s-.1 9.1 9.1 9.1h43.8s9.1-.5 9.1-9.1V13.1s-.3-9.1-9.1-9.1h-43.8z" fill="none" stroke="#2e7fb0" stroke-opacity=".729176" stroke-width="6" stroke-dasharray="185.7030623144284,47.032331041326486" stroke-dashoffset="232.735393" stroke-miterlimit="10"/><path d="M1995.923315 16.046175l1.969835.199367c2.814051.284811 4.774213 2.68643 4.489402 5.50048l-2.882859 27.781633c-.28481 2.814051-2.686428 4.774212-5.50048 4.489401l-1.969835-.199367c-2.814051-.284811-4.774212-2.68643-4.489401-5.50048l2.819627-27.859105c.348042-2.736579 2.827131-4.759971 5.56371-4.41193z" fill="#2e7fb0" fill-opacity=".098967"/><path d="M1992.10685 16.245542l1.969835-.199367c2.814051-.284811 5.215669 1.67535 5.50048 4.489401l2.819627 27.859104c.284811 2.814051-1.67535 5.21567-4.489401 5.50048l-1.969836.199368c-2.81405.28481-5.215668-1.67535-5.50048-4.489401l-2.756396-27.936576c-.348042-2.73658 1.67535-5.21567 4.42617-5.423009z" fill="#2e7fb0" fill-opacity=".098967"/><path d="M2043.1 4s-9.1 0-9.1 9.1v43.8s-.1 9.1 9.1 9.1h43.8s9.1-.5 9.1-9.1V13.1s-.3-9.1-9.1-9.1h-43.8z" fill="none" stroke="#2e7fb0" stroke-opacity=".75297" stroke-width="6" stroke-dasharray="190.46667706058298,42.268716295171885" stroke-dashoffset="232.735393" stroke-miterlimit="10"/><path d="M2066.05556 16.05308l1.968396.213109c2.811995.304441 4.755349 2.71968 4.450907 5.531674l-3.076659 27.760839c-.304441 2.811995-2.71968 4.755349-5.531674 4.450907l-1.968397-.213109c-2.811995-.304441-4.755349-2.71968-4.450907-5.531674l3.01397-27.83875c.36713-2.734084 2.86028-4.740127 5.594363-4.372996z" fill="#2e7fb0" fill-opacity=".099819"/><path d="M2061.976044 16.266189l1.968397-.21311c2.811994-.30444 5.227233 1.638913 5.531674 4.450908l3.01397 27.83875c.304442 2.811995-1.638912 5.227233-4.450907 5.531674l-1.968397.21311c-2.811994.30444-5.227233-1.638913-5.531674-4.450908l-2.951281-27.91666c-.36713-2.734085 1.638912-5.227234 4.388218-5.453764z" fill="#2e7fb0" fill-opacity=".099819"/><path d="M2113.1 4s-9.1 0-9.1 9.1v43.8s-.1 9.1 9.1 9.1h43.8s9.1-.5 9.1-9.1V13.1s-.3-9.1-9.1-9.1h-43.8z" fill="none" stroke="#2e7fb0" stroke-opacity=".774929" stroke-width="6" stroke-dasharray="194.8301630428503,37.90523031290456" stroke-dashoffset="232.735393" stroke-miterlimit="10"/><path d="M2136.19145 16.06114l1.966817.227223c2.809739.324606 4.735717 2.753723 4.41111 5.563462l-3.275724 27.738053c-.324606 2.809739-2.753723 4.735717-5.563462 4.411111l-1.966817-.227224c-2.809738-.324606-4.735716-2.753723-4.41111-5.563461l3.213596-27.816413c.386734-2.73138 2.89421-4.719486 5.62559-4.332752z" fill="#2e7fb0" fill-opacity=".109207"/><path d="M2131.841733 16.288363l1.966817-.227224c2.809739-.324606 5.238856 1.601372 5.563461 4.411111l3.213597 27.816412c.324606 2.809739-1.601372 5.238856-4.41111 5.563462l-1.966818.227224c-2.809738.324605-5.238855-1.601373-5.563461-4.411111l-3.151469-27.894771c-.386734-2.73138 1.601373-5.238856 4.348983-5.485103z" fill="#2e7fb0" fill-opacity=".109207"/><path d="M2183.1 4s-9.1 0-9.1 9.1v43.8s-.1 9.1 9.1 9.1h43.8s9.1-.5 9.1-9.1V13.1s-.3-9.1-9.1-9.1h-43.8z" fill="none" stroke="#2e7fb0" stroke-opacity=".795203" stroke-width="6" stroke-dasharray="198.82806003487715,33.90733332087771" stroke-dashoffset="232.735393" stroke-miterlimit="10"/><path d="M2206.330882 16.070426l1.96509.241702c2.807272.345287 4.71531 2.788521 4.370023 5.595793l-3.479897 27.71318c-.345288 2.807272-2.788522 4.71531-5.595794 4.370022l-1.96509-.241701c-2.807272-.345288-4.71531-2.788522-4.370023-5.595794l3.418348-27.791993c.406837-2.728458 2.928885-4.698046 5.657343-4.291209z" fill="#2e7fb0" fill-opacity=".14706"/><path d="M2201.704028 16.312128l1.96509-.241702c2.807272-.345287 5.250506 1.56275 5.595794 4.370023l3.418347 27.791993c.345288 2.807272-1.56275 5.250506-4.370022 5.595794l-1.96509.241701c-2.807273.345288-5.250507-1.56275-5.595794-4.370022l-3.356798-27.870808c-.406837-2.728458 1.56275-5.250506 4.308473-5.51698z" fill="#2e7fb0" fill-opacity=".14706"/><path d="M2253.1 4s-9.1 0-9.1 9.1v43.8s-.1 9.1 9.1 9.1h43.8s9.1-.5 9.1-9.1V13.1s-.3-9.1-9.1-9.1h-43.8z" fill="none" stroke="#2e7fb0" stroke-opacity=".813929" stroke-width="6" stroke-dasharray="202.49107692739324,30.244316428361635" stroke-dashoffset="232.735393" stroke-miterlimit="10"/><path d="M2276.473746 16.081013l1.96321.25653c2.804585.36647 4.694125 2.824038 4.327654 5.628623l-3.689009 27.68612c-.36647 2.804585-2.824038 4.694124-5.628624 4.327654l-1.96321-.25653c-2.804585-.36647-4.694124-2.824038-4.327654-5.628623l3.628056-27.765396c.427424-2.72531 2.964268-4.675801 5.689577-4.248378z" fill="#2e7fb0" fill-opacity=".184092"/><path d="M2271.563044 16.337542l1.96321-.25653c2.804585-.36647 5.262153 1.52307 5.628624 4.327655l3.628056 27.765396c.36647 2.804586-1.523069 5.262154-4.327654 5.628624l-1.96321.25653c-2.804586.36647-5.262154-1.52307-5.628624-4.327655l-3.567103-27.844672c-.427424-2.72531 1.523068-5.262154 4.266701-5.549348z" fill="#2e7fb0" fill-opacity=".184092"/><path d="M2323.1 4s-9.1 0-9.1 9.1v43.8s-.1 9.1 9.1 9.1h43.8s9.1-.5 9.1-9.1V13.1s-.3-9.1-9.1-9.1h-43.8z" fill="none" stroke="#2e7fb0" stroke-opacity=".83123" stroke-width="6" stroke-dasharray="205.8465049235416,26.888888432213264" stroke-dashoffset="232.735393" stroke-miterlimit="10"/><path d="M2346.619932 16.092969l1.961168.271696c2.80167.388136 4.672157 2.860236 4.28402 5.661905l-3.902891 27.65678c-.388137 2.801668-2.860237 4.672156-5.661906 4.28402l-1.961168-.271696c-2.80167-.388137-4.672157-2.860237-4.28402-5.661906l3.842553-27.736524c.448475-2.721924 3.00032-4.65275 5.722244-4.204275z" fill="#2e7fb0" fill-opacity=".220302"/><path d="M2341.4189 16.364665l1.961168-.271696c2.80167-.388137 5.273769 1.48235 5.661906 4.28402l3.842553 27.736524c.388137 2.80167-1.482351 5.27377-4.28402 5.661906l-1.961168.271695c-2.80167.388137-5.27377-1.48235-5.661906-4.28402l-3.782215-27.81627c-.448475-2.721923 1.482351-5.273768 4.223682-5.58216z" fill="#2e7fb0" fill-opacity=".220302"/><path d="M2393.1 4s-9.1 0-9.1 9.1v43.8s-.1 9.1 9.1 9.1h43.8s9.1-.5 9.1-9.1V13.1s-.3-9.1-9.1-9.1h-43.8z" fill="none" stroke="#2e7fb0" stroke-opacity=".847219" stroke-width="6" stroke-dasharray="208.91861939708986,23.816773958665014" stroke-dashoffset="232.735393" stroke-miterlimit="10"/><path d="M2416.769323 16.106364l1.95896.287188c2.798513.410269 4.649403 2.897076 4.239134 5.69559l-4.12137 27.625066c-.410269 2.798514-2.897076 4.649404-5.69559 4.239135l-1.958959-.287189c-2.798514-.410269-4.649403-2.897076-4.239134-5.69559l4.061663-27.705286c.469975-2.718294 3.037002-4.62889 5.755296-4.158914z" fill="#2e7fb0" fill-opacity=".25569"/><path d="M2411.271718 16.393552l1.95896-.287188c2.798513-.41027 5.28532 1.44062 5.695589 4.239134l4.061663 27.705286c.41027 2.798514-1.44062 5.28532-4.239134 5.69559l-1.95896.287188c-2.798513.41027-5.28532-1.44062-5.69559-4.239134l-4.001957-27.785506c-.469975-2.718294 1.44062-5.28532 4.179429-5.61537z" fill="#2e7fb0" fill-opacity=".25569"/><path d="M2463.1 4s-9.1 0-9.1 9.1v43.8s-.1 9.1 9.1 9.1h43.8s9.1-.5 9.1-9.1V13.1s-.3-9.1-9.1-9.1h-43.8z" fill="none" stroke="#2e7fb0" stroke-opacity=".861996" stroke-width="6" stroke-dasharray="211.7290503771199,21.00634297863495" stroke-dashoffset="232.735393" stroke-miterlimit="10"/><path d="M2486.921801 16.121264l1.956577.302994c2.79511.43285 4.625863 2.934518 4.193014 5.729628l-4.344264 27.590893c-.43285 2.79511-2.934518 4.625863-5.729628 4.193014l-1.956577-.302995c-2.79511-.432849-4.625863-2.934517-4.193014-5.729628l4.285207-27.671592c.491906-2.714411 3.074274-4.60422 5.788685-4.112314z" fill="#2e7fb0" fill-opacity=".290256"/><path d="M2481.121622 16.424258l1.956577-.302994c2.79511-.43285 5.296779 1.397903 5.729628 4.193013l4.285207 27.671592c.43285 2.79511-1.397903 5.29678-4.193013 5.729628l-1.956578.302995c-2.79511.432849-5.296778-1.397903-5.729628-4.193014l-4.22615-27.75229c-.491906-2.714412 1.397903-5.29678 4.133957-5.64893z" fill="#2e7fb0" fill-opacity=".290256"/><path d="M2533.1 4s-9.1 0-9.1 9.1v43.8s-.1 9.1 9.1 9.1h43.8s9.1-.5 9.1-9.1V13.1s-.3-9.1-9.1-9.1h-43.8z" fill="none" stroke="#2e7fb0" stroke-opacity=".875653" stroke-width="6" stroke-dasharray="214.29711414888348,18.43827920687139" stroke-dashoffset="232.735393" stroke-miterlimit="10"/><path d="M2557.077244 16.137735l1.954015.3191c2.79145.455859 4.601534 2.972523 4.145675 5.763973l-4.571389 27.554172c-.455858 2.79145-2.972522 4.601534-5.763972 4.145675l-1.954015-.3191c-2.79145-.45586-4.601533-2.972523-4.145675-5.763973l4.512999-27.635355c.514248-2.710267 3.112095-4.57874 5.822362-4.064492z" fill="#2e7fb0" fill-opacity=".324"/><path d="M2550.96874 16.456836l1.954016-.319101c2.79145-.455859 5.308114 1.354225 5.763972 4.145675l4.513 27.635354c.455858 2.79145-1.354226 5.308114-4.145676 5.763973l-1.954015.3191c-2.79145.45586-5.308114-1.354224-5.763972-4.145674l-4.45461-27.716538c-.514248-2.710267 1.354225-5.308114 4.087286-5.68279z" fill="#2e7fb0" fill-opacity=".324"/><path d="M2603.1 4s-9.1 0-9.1 9.1v43.8s-.1 9.1 9.1 9.1h43.8s9.1-.5 9.1-9.1V13.1s-.3-9.1-9.1-9.1h-43.8z" fill="none" stroke="#2e7fb0" stroke-opacity=".888271" stroke-width="6" stroke-dasharray="216.640104993893,16.095288361861872" stroke-dashoffset="232.735393" stroke-miterlimit="10"/><path d="M2627.235528 16.155839l1.951267.335494c2.787524.479278 4.576416 3.01105 4.097138 5.798574l-4.802557 27.514823c-.479278 2.787524-3.01105 4.576415-5.798574 4.097137l-1.951267-.335494c-2.787524-.479278-4.576416-3.01105-4.097138-5.798574l4.74485-27.596493c.536985-2.705854 3.150426-4.552451 5.85628-4.015467z" fill="#2e7fb0" fill-opacity=".356922"/><path d="M2620.813205 16.491333l1.951267-.335494c2.787525-.479278 5.319296 1.309613 5.798574 4.097138l4.74485 27.596492c.479278 2.787524-1.309613 5.319296-4.097137 5.798574l-1.951267.335495c-2.787525.479277-5.319297-1.309614-5.798574-4.097138l-4.687145-27.678163c-.536984-2.705854 1.309614-5.319296 4.039432-5.716904z" fill="#2e7fb0" fill-opacity=".356922"/><path d="M2673.1 4s-9.1 0-9.1 9.1v43.8s-.1 9.1 9.1 9.1h43.8s9.1-.5 9.1-9.1V13.1s-.3-9.1-9.1-9.1h-43.8z" fill="none" stroke="#2e7fb0" stroke-opacity=".899922" stroke-width="6" stroke-dasharray="218.77354929354362,13.961844062211245" stroke-dashoffset="232.735393" stroke-miterlimit="10"/><path d="M2697.396523 16.175636l1.948328.352161c2.783326.503088 4.55051 3.050059 4.047423 5.833384l-5.037574 27.472766c-.503087 2.783326-3.050058 4.55051-5.833384 4.047423l-1.948328-.352162c-2.783326-.503087-4.55051-3.050058-4.047423-5.833384l4.980568-27.554925c.560094-2.701166 3.189225-4.525357 5.89039-3.965263z" fill="#2e7fb0" fill-opacity=".389023"/><path d="M2690.655149 16.527797l1.948328-.35216c2.783326-.503089 5.330296 1.264096 5.833384 4.047422l4.980568 27.554926c.503087 2.783326-1.264097 5.330296-4.047423 5.833384l-1.948328.352161c-2.783326.503088-5.330297-1.264097-5.833384-4.047423l-4.923562-27.637086c-.560094-2.701165 1.264097-5.330296 3.990417-5.751224z" fill="#2e7fb0" fill-opacity=".389023"/><path d="M2743.1 4s-9.1 0-9.1 9.1v43.8s-.1 9.1 9.1 9.1h43.8s9.1-.5 9.1-9.1V13.1s-.3-9.1-9.1-9.1h-43.8z" fill="none" stroke="#2e7fb0" stroke-opacity=".910674" stroke-width="6" stroke-dasharray="220.71142560037492,12.023967755379955" stroke-dashoffset="232.735393" stroke-miterlimit="10"/><path d="M2767.5601 16.197184l1.945192.369088c2.778847.527268 4.52382 3.089507 3.996552 5.868353l-5.276243 27.427929c-.527268 2.778846-3.089507 4.52382-5.868354 3.996551l-1.945192-.369087c-2.778847-.527268-4.52382-3.089507-3.996552-5.868354l5.219954-27.510581c.583557-2.696194 3.22845-4.497457 5.924643-3.913899z" fill="#2e7fb0" fill-opacity=".420302"/><path d="M2760.494708 16.566272l1.945192-.369088c2.778847-.527268 5.341086 1.217705 5.868354 3.996552l5.219954 27.510581c.527268 2.778847-1.217706 5.341086-3.996552 5.868354l-1.945193.369087c-2.778846.527268-5.341085-1.217705-5.868353-3.996552l-5.163665-27.593234c-.583557-2.696193 1.217705-5.341085 3.940263-5.7857z" fill="#2e7fb0" fill-opacity=".420302"/><path d="M2813.1 4s-9.1 0-9.1 9.1v43.8s-.1 9.1 9.1 9.1h43.8s9.1-.5 9.1-9.1V13.1s-.3-9.1-9.1-9.1h-43.8z" fill="none" stroke="#2e7fb0" stroke-opacity=".920586" stroke-width="6" stroke-dasharray="222.4663546911454,10.269038664609454" stroke-dashoffset="232.735393" stroke-miterlimit="10"/><path d="M2837.726124 16.220537l1.941856.386259c2.77408.551798 4.496347 3.129354 3.944548 5.903434l-5.518365 27.380242c-.551798 2.77408-3.129354 4.496347-5.903434 3.944549l-1.941856-.38626c-2.77408-.551798-4.496347-3.129354-3.944548-5.903434l5.462808-27.463389c.607355-2.690933 3.268058-4.468757 5.95899-3.861401z" fill="#2e7fb0" fill-opacity=".450759"/><path d="M2830.33202 16.606796l1.941856-.38626c2.77408-.551798 5.351636 1.17047 5.903434 3.94455l5.462808 27.463388c.551799 2.77408-1.170469 5.351636-3.944548 5.903434l-1.941856.38626c-2.77408.551798-5.351636-1.17047-5.903435-3.94455l-5.40725-27.546535c-.607356-2.690933 1.170469-5.351636 3.888991-5.820287z" fill="#2e7fb0" fill-opacity=".450759"/><g><path d="M2883.1 4s-9.1 0-9.1 9.1v43.8s-.1 9.1 9.1 9.1h43.8s9.1-.5 9.1-9.1V13.1s-.3-9.1-9.1-9.1h-43.8z" fill="none" stroke="#2e7fb0" stroke-opacity=".929712" stroke-width="6" stroke-dasharray="224.0497635323762,8.685629823378656" stroke-dashoffset="232.735393" stroke-miterlimit="10"/><path d="M2907.894459 16.245744l1.938313.403662c2.769018.576659 4.468097 3.169559 3.891438 5.938577l-5.763733 27.329643c-.576659 2.769019-3.169559 4.468098-5.938578 3.891439l-1.938313-.403662c-2.769018-.576659-4.468097-3.169559-3.891438-5.938577l5.708924-27.413285c.631468-2.685377 3.30801-4.439265 5.993387-3.807797z" fill="#2e7fb0" fill-opacity=".480394"/><path d="M2900.167228 16.649406l1.938313-.403662c2.769019-.576659 5.36192 1.12242 5.938578 3.891439l5.708924 27.413285c.57666 2.769018-1.12242 5.361918-3.891438 5.938577l-1.938313.403662c-2.76902.576659-5.36192-1.12242-5.938578-3.891439l-5.654115-27.496927c-.631468-2.685376 1.12242-5.361918 3.83663-5.854935z" fill="#2e7fb0" fill-opacity=".480394"/></g><g><path d="M2953.1 4s-9.1 0-9.1 9.1v43.8s-.1 9.1 9.1 9.1h43.8s9.1-.5 9.1-9.1V13.1s-.3-9.1-9.1-9.1h-43.8z" fill="none" stroke="#2e7fb0" stroke-opacity=".938101" stroke-width="6" stroke-dasharray="225.47202677492112,7.263366580833739" stroke-dashoffset="232.735393" stroke-miterlimit="10"/><path d="M2978.064966 16.272854l1.93456.42128c2.763658.601827 4.439076 3.210079 3.837248 5.973736l-6.01214 27.276073c-.601828 2.763658-3.21008 4.439076-5.973737 3.837248l-1.93456-.421279c-2.763658-.601828-4.439076-3.210079-3.837248-5.973736l5.958094-27.36021c.655874-2.679521 3.348262-4.408985 6.027783-3.753112z" fill="#2e7fb0" fill-opacity=".509207"/><path d="M2970.000474 16.694134l1.93456-.42128c2.763658-.601827 5.37191 1.07359 5.973737 3.837248l5.958094 27.36021c.601828 2.763658-1.07359 5.37191-3.837248 5.973737l-1.93456.42128c-2.763658.601827-5.371909-1.07359-5.973736-3.837248l-5.90405-27.444348c-.655873-2.67952 1.073591-5.371909 3.783203-5.8896z" fill="#2e7fb0" fill-opacity=".509207"/></g><g><path d="M3023.1 4s-9.1 0-9.1 9.1v43.8s-.1 9.1 9.1 9.1h43.8s9.1-.5 9.1-9.1V13.1s-.3-9.1-9.1-9.1h-43.8z" fill="none" stroke="#2e7fb0" stroke-opacity=".945798" stroke-width="6" stroke-dasharray="226.74258899189323,5.992804363861642" stroke-dashoffset="232.735393" stroke-miterlimit="10"/><path d="M3048.237504 16.30191l1.930593.439099c2.757992.627283 4.40929 3.250871 3.782006 6.008862l-6.263376 27.21948c-.627283 2.757992-3.250871 4.40929-6.008862 3.782007l-1.930594-.439099c-2.757991-.627283-4.40929-3.250871-3.782006-6.008863l6.210108-27.304112c.680551-2.67336 3.388771-4.377925 6.06213-3.697374z" fill="#2e7fb0" fill-opacity=".537199"/><path d="M3039.831903 16.741009l1.930593-.439099c2.757992-.627284 5.38158 1.024015 6.008863 3.782006l6.210108 27.304112c.627284 2.757991-1.024014 5.38158-3.782005 6.008863l-1.930594.439099c-2.757991.627283-5.38158-1.024015-6.008863-3.782006l-6.15684-27.388745c-.680552-2.673359 1.024014-5.381579 3.728738-5.92423z" fill="#2e7fb0" fill-opacity=".537199"/></g><g><path d="M3093.1 4s-9.1 0-9.1 9.1v43.8s-.1 9.1 9.1 9.1h43.8s9.1-.5 9.1-9.1V13.1s-.3-9.1-9.1-9.1h-43.8z" fill="none" stroke="#2e7fb0" stroke-opacity=".952844" stroke-width="6" stroke-dasharray="227.87007045850882,4.865322897246035" stroke-dashoffset="232.735393" stroke-miterlimit="10"/><path d="M3118.41193 16.33295l1.92641.457104c2.752014.653005 4.378746 3.291895 3.725741 6.04391l-6.517226 27.159819c-.653005 2.752015-3.291895 4.378747-6.04391 3.725742l-1.92641-.457104c-2.752014-.653005-4.378747-3.291895-3.725742-6.04391l6.46475-27.244944c.705481-2.66689 3.429497-4.346097 6.096386-3.640617z" fill="#2e7fb0" fill-opacity=".564368"/><path d="M3109.66166 16.790054l1.92641-.457104c2.752015-.653005 5.390906.973728 6.04391 3.725742l6.464751 27.244945c.653006 2.752014-.973727 5.390905-3.725741 6.04391l-1.92641.457103c-2.752015.653005-5.390905-.973727-6.04391-3.725742l-6.412276-27.33007c-.70548-2.666889.973727-5.390904 3.673267-5.958784z" fill="#2e7fb0" fill-opacity=".564368"/></g><g><path d="M3163.1 4s-9.1 0-9.1 9.1v43.8s-.1 9.1 9.1 9.1h43.8s9.1-.5 9.1-9.1V13.1s-.3-9.1-9.1-9.1h-43.8z" fill="none" stroke="#2e7fb0" stroke-opacity=".959276" stroke-width="6" stroke-dasharray="228.8623588798576,3.87303447589727" stroke-dashoffset="232.735393" stroke-miterlimit="10"/><path d="M3188.588097 16.36601l1.922007.47528c2.745724.67897 4.347458 3.333108 3.668488 6.078832l-6.773475 27.097049c-.67897 2.745723-3.333108 4.347457-6.078832 3.668487l-1.922006-.475279c-2.745724-.67897-4.347458-3.333108-3.668488-6.078832l6.721805-27.182666c.73064-2.660107 3.470395-4.31351 6.130501-3.58287z" fill="#2e7fb0" fill-opacity=".590716"/><path d="M3179.489896 16.84129l1.922007-.47528c2.745724-.67897 5.399862.922764 6.078832 3.668488l6.721805 27.182666c.67897 2.745724-.922764 5.399862-3.668488 6.078832l-1.922006.47528c-2.745724.67897-5.399862-.922764-6.078832-3.668488l-6.670137-27.268284c-.730639-2.660106.922764-5.399861 3.61682-5.993214z" fill="#2e7fb0" fill-opacity=".590716"/></g><g><path d="M3233.1 4s-9.1 0-9.1 9.1v43.8s-.1 9.1 9.1 9.1h43.8s9.1-.5 9.1-9.1V13.1s-.3-9.1-9.1-9.1h-43.8z" fill="none" stroke="#2e7fb0" stroke-opacity=".965127" stroke-width="6" stroke-dasharray="229.72668911920948,3.0087042365453733" stroke-dashoffset="232.735393" stroke-miterlimit="10"/><path d="M3258.76586 16.401121l1.917382.49361c2.739115.705157 4.315433 3.374468 3.610276 6.113583l-7.031902 27.031137c-.705157 2.739116-3.374468 4.315434-6.113583 3.610277l-1.917381-.49361c-2.739116-.705157-4.315434-3.374468-3.610277-6.113584l6.981053-27.117243c.756006-2.653009 3.511424-4.280176 6.164433-3.52417z" fill="#2e7fb0" fill-opacity=".616242"/><path d="M3249.316758 16.894731l1.917381-.49361c2.739116-.705157 5.408427.871161 6.113584 3.610277l6.981053 27.117243c.705157 2.739116-.871161 5.408427-3.610277 6.113584l-1.91738.49361c-2.739116.705156-5.408427-.871161-6.113584-3.610277l-6.930204-27.20335c-.756006-2.653009.87116-5.408427 3.559427-6.027477z" fill="#2e7fb0" fill-opacity=".616242"/></g><g><path d="M3303.1 4s-9.1 0-9.1 9.1v43.8s-.1 9.1 9.1 9.1h43.8s9.1-.5 9.1-9.1V13.1s-.3-9.1-9.1-9.1h-43.8z" fill="none" stroke="#2e7fb0" stroke-opacity=".97043" stroke-width="6" stroke-dasharray="230.4697126700519,2.2656806857029625" stroke-dashoffset="232.735393" stroke-miterlimit="10"/><path d="M3328.945071 16.438308l1.91253.51208c2.732188.731543 4.282687 3.415933 3.551144 6.14812l-7.29229 26.962057c-.731542 2.732187-3.415932 4.282686-6.14812 3.551143l-1.91253-.51208c-2.732187-.731542-4.282686-3.415933-3.551143-6.14812l7.242273-27.04865c.781559-2.645594 3.552542-4.246109 6.198136-3.46455z" fill="#2e7fb0" fill-opacity=".640946"/><path d="M3319.142398 16.950388l1.91253-.51208c2.732188-.731543 5.416578.818956 6.148121 3.551143l7.242273 27.04865c.731543 2.732187-.818956 5.416578-3.551143 6.14812l-1.91253.51208c-2.732188.731543-5.416578-.818956-6.14812-3.551143l-7.192258-27.135243c-.781559-2.645594.818956-5.416578 3.501127-6.061527z" fill="#2e7fb0" fill-opacity=".640946"/></g><g><path d="M3373.1 4s-9.1 0-9.1 9.1v43.8s-.1 9.1 9.1 9.1h43.8s9.1-.5 9.1-9.1V13.1s-.3-9.1-9.1-9.1h-43.8z" fill="none" stroke="#2e7fb0" stroke-opacity=".975213" stroke-width="6" stroke-dasharray="231.09755834871268,1.6378350070421974" stroke-dashoffset="232.735393" stroke-miterlimit="10"/><path d="M3399.125579 16.477592l1.907455.530674c2.724936.758105 4.24923 3.457462 3.491124 6.182398l-7.554414 26.88979c-.758106 2.724937-3.457463 4.24923-6.182399 3.491125l-1.907455-.530674c-2.724936-.758105-4.24923-3.457462-3.491124-6.182398l7.505243-26.976867c.807276-2.63786 3.59371-4.211324 6.23157-3.404048z" fill="#2e7fb0" fill-opacity=".664828"/><path d="M3388.966966 17.008266l1.907455-.530674c2.724936-.758105 5.424294.766188 6.182399 3.491124l7.505243 26.976867c.758106 2.724936-.766188 5.424293-3.491124 6.182398l-1.907455.530674c-2.724936.758105-5.424293-.766188-6.182399-3.491124l-7.456072-27.063943c-.807276-2.63786.766188-5.424293 3.441953-6.095322z" fill="#2e7fb0" fill-opacity=".664828"/></g><g><path d="M3443.1 4s-9.1 0-9.1 9.1v43.8s-.1 9.1 9.1 9.1h43.8s9.1-.5 9.1-9.1V13.1s-.3-9.1-9.1-9.1h-43.8z" fill="none" stroke="#2e7fb0" stroke-opacity=".979502" stroke-width="6" stroke-dasharray="231.6158854576095,1.1195078981453643" stroke-dashoffset="232.735393" stroke-miterlimit="10"/><path d="M3469.307232 16.51899l1.902153.549375c2.717362.784822 4.21508 3.499015 3.430258 6.216376l-7.818053 26.814326c-.784823 2.717361-3.499015 4.21508-6.216377 3.430257l-1.902153-.549375c-2.717361-.784823-4.21508-3.499015-3.430257-6.216377l7.76974-26.90188c.833135-2.629807 3.634882-4.175838 6.26469-3.342703z" fill="#2e7fb0" fill-opacity=".687889"/><path d="M3458.790615 17.068365l1.902153-.549376c2.717361-.784822 5.431554.712896 6.216376 3.430258l7.76974 26.90188c.784822 2.717361-.712896 5.431554-3.430258 6.216376l-1.902153.549376c-2.717361.784822-5.431554-.712896-6.216376-3.430258l-7.721426-26.989434c-.833136-2.629807.712896-5.431554 3.381944-6.128822z" fill="#2e7fb0" fill-opacity=".687889"/></g><g><path d="M3513.1 4s-9.1 0-9.1 9.1v43.8s-.1 9.1 9.1 9.1h43.8s9.1-.5 9.1-9.1V13.1s-.3-9.1-9.1-9.1h-43.8z" fill="none" stroke="#2e7fb0" stroke-opacity=".983323" stroke-width="6" stroke-dasharray="232.0299304772897,0.7054628784651801" stroke-dashoffset="232.735393" stroke-miterlimit="10"/><path d="M3539.48988 16.562512l1.896624.568169c2.709463.81167 4.180253 3.540549 3.368582 6.250012l-8.082982 26.735658c-.81167 2.709463-3.540549 4.180253-6.250012 3.368582l-1.896624-.56817c-2.709464-.81167-4.180253-3.540548-3.368583-6.250011l8.035538-26.823687c.859115-2.621434 3.676022-4.139669 6.297457-3.280553z" fill="#2e7fb0" fill-opacity=".710128"/><path d="M3528.613496 17.13068l1.896624-.568168c2.709463-.81167 5.438342.659119 6.250012 3.368582l8.035538 26.823686c.81167 2.709463-.65912 5.438342-3.368582 6.250012l-1.896625.56817c-2.709463.81167-5.438341-.65912-6.250012-3.368583l-7.988093-26.911714c-.859115-2.621435.65912-5.438342 3.321138-6.161984z" fill="#2e7fb0" fill-opacity=".710128"/></g><g><path d="M3583.1 4s-9.1 0-9.1 9.1v43.8s-.1 9.1 9.1 9.1h43.8s9.1-.5 9.1-9.1V13.1s-.3-9.1-9.1-9.1h-43.8z" fill="none" stroke="#2e7fb0" stroke-opacity=".986697" stroke-width="6" stroke-dasharray="232.344548183741,0.3908451720138635" stroke-dashoffset="232.735393" stroke-miterlimit="10"/><path d="M3609.67337 16.608164l1.890868.58704c2.701241.838627 4.144767 3.582025 3.30614 6.283266l-8.348977 26.653792c-.838627 2.70124-3.582026 4.144766-6.283267 3.30614l-1.890869-.58704c-2.70124-.838628-4.144767-3.582026-3.30614-6.283267l8.302412-26.742288c.885193-2.612744 3.717088-4.102835 6.329832-3.217643z" fill="#2e7fb0" fill-opacity=".731544"/><path d="M3598.435762 17.195203l1.890869-.587039c2.701241-.838627 5.44464.604899 6.283267 3.30614l8.30241 26.742288c.838628 2.701241-.604897 5.44464-3.306139 6.283267l-1.890869.587039c-2.70124.838627-5.444639-.604899-6.283266-3.30614l-8.255846-26.830784c-.885193-2.612745.604898-5.44464 3.259574-6.19477z" fill="#2e7fb0" fill-opacity=".731544"/></g><g><path d="M3653.1 4s-9.1 0-9.1 9.1v43.8s-.1 9.1 9.1 9.1h43.8s9.1-.5 9.1-9.1V13.1s-.3-9.1-9.1-9.1h-43.8z" fill="none" stroke="#2e7fb0" stroke-opacity=".989645" stroke-width="6" stroke-dasharray="232.56424795150545,0.17114540424940666" stroke-dashoffset="232.735393" stroke-miterlimit="10"/><path d="M3679.857547 16.655948l1.884888.60597c2.692696.86567 4.108642 3.623404 3.242971 6.3161l-8.61581 26.568738c-.865671 2.692696-3.623406 4.108642-6.316102 3.242971l-1.884888-.605969c-2.692696-.86567-4.108642-3.623404-3.242972-6.3161l8.570136-26.657697c.911346-2.603738 3.75804-4.065359 6.361777-3.154013z" fill="#2e7fb0" fill-opacity=".752139"/><path d="M3668.257565 17.261917l1.884888-.605969c2.692697-.86567 5.450431.550275 6.316101 3.242972l8.570136 26.657696c.86567 2.692697-.550275 5.450431-3.242972 6.316101l-1.884888.60597c-2.692696.86567-5.45043-.550275-6.3161-3.242972l-8.52446-26.746656c-.911347-2.603737.550274-5.45043 3.197295-6.227142z" fill="#2e7fb0" fill-opacity=".752139"/></g><g><path d="M3723.1 4s-9.1 0-9.1 9.1v43.8s-.1 9.1 9.1 9.1h43.8s9.1-.5 9.1-9.1V13.1s-.3-9.1-9.1-9.1h-43.8z" fill="none" stroke="#2e7fb0" stroke-opacity=".992187" stroke-width="6" stroke-dasharray="232.69322588890958,0.042167466845272394" stroke-dashoffset="232.735393" stroke-miterlimit="10"/><path d="M3750.04226 16.705859l1.878682.624943c2.683831.892776 4.071899 3.664647 3.179123 6.348478l-8.883262 26.480515c-.892776 2.683831-3.664647 4.0719-6.348478 3.179123l-1.878682-.624944c-2.683832-.892776-4.0719-3.664647-3.179123-6.348478l8.838485-26.56993c.937553-2.594416 3.798839-4.02726 6.393255-3.089707z" fill="#2e7fb0" fill-opacity=".771913"/><path d="M3738.079058 17.330802l1.878682-.624943c2.683831-.892777 5.455702.49529 6.348478 3.179122l8.838486 26.56993c.892776 2.683832-.495292 5.455702-3.179123 6.348479l-1.878682.624943c-2.683831.892776-5.455702-.495291-6.348479-3.179123l-8.793708-26.659345c-.937553-2.594416.495291-5.455702 3.134346-6.259063z" fill="#2e7fb0" fill-opacity=".771913"/></g><g><path d="M3793.1 4s-9.1 0-9.1 9.1v43.8s-.1 9.1 9.1 9.1h43.8s9.1-.5 9.1-9.1V13.1s-.3-9.1-9.1-9.1h-43.8z" fill="none" stroke="#2e7fb0" stroke-opacity=".994342" stroke-width="6" stroke-miterlimit="10"/><path d="M3820.227355 16.757885l1.872254.643946c2.674648.919923 4.03456 3.705715 3.114637 6.380363l-9.151102 26.389152c-.919923 2.674648-3.705716 4.03456-6.380364 3.114637l-1.872253-.643946c-2.674648-.919923-4.03456-3.705715-3.114638-6.380363l9.107235-26.479016c.96379-2.584783 3.839448-3.988564 6.424231-3.024773z" fill="#2e7fb0" fill-opacity=".790864"/><path d="M3807.900391 17.401831l1.872254-.643946c2.674648-.919923 5.46044.43999 6.380363 3.114638l9.107235 26.479015c.919922 2.674648-.43999 5.46044-3.114638 6.380363l-1.872254.643946c-2.674648.919923-5.46044-.43999-6.380363-3.114637l-9.063366-26.56888c-.963791-2.584784.43999-5.46044 3.070769-6.290499z" fill="#2e7fb0" fill-opacity=".790864"/></g><g><path d="M3863.1 4s-9.1 0-9.1 9.1v43.8s-.1 9.1 9.1 9.1h43.8s9.1-.5 9.1-9.1V13.1s-.3-9.1-9.1-9.1h-43.8z" fill="none" stroke="#2e7fb0" stroke-opacity=".996126" stroke-width="6" stroke-miterlimit="10"/><path d="M3890.41268 16.812012l1.865605.662961c2.66515.947087 3.99665 3.74657 3.049563 6.411721l-9.419112 26.294683c-.947087 2.66515-3.746571 3.99665-6.411722 3.049562l-1.865605-.66296c-2.66515-.947087-3.99665-3.746571-3.049562-6.411722l9.37616-26.384988c.990038-2.574845 3.879828-3.949295 6.454673-2.959257z" fill="#2e7fb0" fill-opacity=".808993"/><path d="M3877.721715 17.474973l1.865605-.66296c2.66515-.947088 5.464635.384411 6.411721 3.049562l9.37616 26.384988c.947088 2.66515-.384411 5.464635-3.049562 6.411721l-1.865605.662961c-2.66515.947087-5.464634-.384412-6.411721-3.049562l-9.333209-26.475295c-.990038-2.574844.384412-5.464634 3.006611-6.321415z" fill="#2e7fb0" fill-opacity=".808993"/></g><g><path d="M3933.1 4s-9.1 0-9.1 9.1v43.8s-.1 9.1 9.1 9.1h43.8s9.1-.5 9.1-9.1V13.1s-.3-9.1-9.1-9.1h-43.8z" fill="none" stroke="#2e7fb0" stroke-opacity=".997555" stroke-width="6" stroke-miterlimit="10"/><path d="M3960.59808 16.868219l1.85874.681972c2.655343.974247 3.958193 3.787178 2.983946 6.44252l-9.687066 26.197152c-.974246 2.655342-3.787178 3.958192-6.44252 2.983946l-1.85874-.681973c-2.655343-.974246-3.958192-3.787178-2.983946-6.44252l9.645039-26.287891c1.016274-2.564603 3.919945-3.90948 6.484548-2.893206z" fill="#2e7fb0" fill-opacity=".826301"/><path d="M3947.54318 17.550191l1.85874-.681972c2.655342-.974247 5.468273.328603 6.44252 2.983945l9.645039 26.287892c.974246 2.655342-.328604 5.468274-2.983946 6.44252l-1.85874.681972c-2.655343.974247-5.468274-.328603-6.44252-2.983945l-9.603012-26.378631c-1.016274-2.564603.328603-5.468274 2.941919-6.35178z" fill="#2e7fb0" fill-opacity=".826301"/></g><g><path d="M4003.1 4s-9.1 0-9.1 9.1v43.8s-.1 9.1 9.1 9.1h43.8s9.1-.5 9.1-9.1V13.1s-.3-9.1-9.1-9.1h-43.8z" fill="none" stroke="#2e7fb0" stroke-opacity=".998643" stroke-width="6" stroke-miterlimit="10"/><path d="M4030.783407 16.926478l1.85166.700965c2.64523 1.001378 3.919215 3.8275 2.917836 6.47273l-9.954745 26.09661c-1.001379 2.64523-3.8275 3.919214-6.47273 2.917836l-1.85166-.700966c-2.64523-1.001378-3.919215-3.8275-2.917837-6.47273l9.91365-26.187775c1.042474-2.554064 3.959761-3.869145 6.513826-2.82667z" fill="#2e7fb0" fill-opacity=".842787"/><path d="M4017.364932 17.627443l1.851661-.700965c2.64523-1.001379 5.471352.272606 6.47273 2.917835l9.91365 26.187776c1.001378 2.64523-.272607 5.471351-2.917836 6.47273l-1.851661.700965c-2.64523 1.001378-5.471352-.272606-6.47273-2.917836l-9.872553-26.27894c-1.042475-2.554065.272606-5.471352 2.87674-6.381565z" fill="#2e7fb0" fill-opacity=".842787"/></g><g><path d="M4073.1 4s-9.1 0-9.1 9.1v43.8s-.1 9.1 9.1 9.1h43.8s9.1-.5 9.1-9.1V13.1s-.3-9.1-9.1-9.1h-43.8z" fill="none" stroke="#2e7fb0" stroke-opacity=".999405" stroke-width="6" stroke-miterlimit="10"/><path d="M4100.968507 16.986757l1.844373.719923c2.634818 1.028462 3.879744 3.867504 2.851282 6.502322l-10.22193 25.993117c-1.028461 2.634818-3.867503 3.879745-6.502321 2.851283l-1.844373-.719923c-2.634818-1.028462-3.879744-3.867504-2.851282-6.502322l10.18177-26.0847c1.068621-2.543235 3.999245-3.82832 6.542481-2.7597z" fill="#2e7fb0" fill-opacity=".858451"/><path d="M4087.18712 17.70668l1.844373-.719923c2.634818-1.028462 5.47386.216465 6.502322 2.851283l10.18177 26.0847c1.028462 2.634817-.216464 5.47386-2.851282 6.50232l-1.844373.719924c-2.634818 1.028462-5.47386-.216465-6.502322-2.851283l-10.141611-26.176281c-1.068621-2.543236.216464-5.47386 2.811123-6.41074z" fill="#2e7fb0" fill-opacity=".858451"/></g><g><path d="M4143.1 4s-9.1 0-9.1 9.1v43.8s-.1 9.1 9.1 9.1h43.8s9.1-.5 9.1-9.1V13.1s-.3-9.1-9.1-9.1h-43.8z" fill="none" stroke="#2e7fb0" stroke-opacity=".999853" stroke-width="6" stroke-miterlimit="10"/><path d="M4171.153232 17.049019l1.83688.73883c2.624114 1.055474 3.83981 3.907155 2.784338 6.53127l-10.488403 25.886741c-1.055474 2.624114-3.907154 3.83981-6.531269 2.784338l-1.83688-.738832c-2.624114-1.055473-3.83981-3.907154-2.784337-6.531268l10.449187-25.978732c1.09469-2.532124 4.03836-3.787037 6.570484-2.692347z" fill="#2e7fb0" fill-opacity=".873293"/><path d="M4157.009888 17.78785l1.83688-.738831c2.624114-1.055474 5.475795.160223 6.531268 2.784337l10.449187 25.978732c1.055474 2.624114-.160223 5.475794-2.784337 6.531268l-1.83688.738831c-2.624115 1.055474-5.475795-.160223-6.531269-2.784337l-10.40997-26.070722c-1.09469-2.532124.160223-5.475794 2.745121-6.439278z" fill="#2e7fb0" fill-opacity=".873293"/></g><g><path d="M4213.1 4s-9.1 0-9.1 9.1v43.8s-.1 9.1 9.1 9.1h43.8s9.1-.5 9.1-9.1V13.1s-.3-9.1-9.1-9.1h-43.8z" fill="none" stroke="#2e7fb0" stroke-width="6" stroke-miterlimit="10"/><path d="M4241.337434 17.113219l1.829188.757675c2.613126 1.082392 3.799444 3.946418 2.717052 6.559544l-10.75395 25.777559c-1.082393 2.613126-3.94642 3.799445-6.559546 2.717052l-1.829188-.757674c-2.613126-1.082392-3.799444-3.946419-2.717052-6.559545l10.715683-25.869947c1.12066-2.520738 4.077075-3.745325 6.597813-2.624664z" fill="#2e7fb0" fill-opacity=".887314"/><path d="M4226.833378 17.870894l1.829188-.757675c2.613126-1.082392 5.477153.103926 6.559545 2.717052l10.715683 25.869947c1.082392 2.613126-.103927 5.477153-2.717053 6.559545l-1.829188.757674c-2.613126 1.082392-5.477152-.103926-6.559544-2.717052l-10.677415-25.962335c-1.12066-2.520738.103927-5.477152 2.678784-6.467156z" fill="#2e7fb0" fill-opacity=".887314"/></g><g><path d="M4283.1 4s-9.1 0-9.1 9.1v43.8s-.1 9.1 9.1 9.1h43.8s9.1-.5 9.1-9.1V13.1s-.3-9.1-9.1-9.1h-43.8z" fill="none" stroke="#2e7fb0" stroke-width="6" stroke-miterlimit="10"/><path d="M4311.520966 17.17931l1.821303.776437c2.601861 1.109197 3.758676 3.985267 2.64948 6.587128l-11.018363 25.665652c-1.109197 2.601861-3.985267 3.758677-6.587128 2.64948l-1.821303-.776438c-2.601862-1.109196-3.758677-3.985266-2.64948-6.587128l10.981046-25.758428c1.146513-2.509085 4.11536-3.703217 6.624445-2.556703z" fill="#2e7fb0" fill-opacity=".900512"/><path d="M4296.657731 17.955747l1.821303-.776437c2.601862-1.109197 5.477932.047618 6.587128 2.64948l10.981047 25.758428c1.109196 2.601861-.04762 5.477931-2.64948 6.587128l-1.821303.776437c-2.601862 1.109197-5.477932-.047618-6.587128-2.64948l-10.94373-25.851204c-1.146513-2.509085.047619-5.477932 2.612163-6.494352z" fill="#2e7fb0" fill-opacity=".900512"/></g><g><path d="M4353.1 4s-9.1 0-9.1 9.1v43.8s-.1 9.1 9.1 9.1h43.8s9.1-.5 9.1-9.1V13.1s-.3-9.1-9.1-9.1h-43.8z" fill="none" stroke="#2e7fb0" stroke-width="6" stroke-miterlimit="10"/><path d="M4381.703684 17.247236l1.81323.795106c2.59033 1.135865 3.71754 4.023667 2.581675 6.613997l-11.28143 25.551112c-1.135866 2.59033-4.023667 3.71754-6.613997 2.581675l-1.813231-.795106c-2.59033-1.135866-3.71754-4.023667-2.581675-6.613997l11.245069-25.644267c1.172227-2.497175 4.153183-3.660747 6.650359-2.48852z" fill="#2e7fb0" fill-opacity=".912889"/><path d="M4366.483085 18.042342l1.813231-.795106c2.59033-1.135865 5.478132-.008655 6.613998 2.581675l11.245068 25.644266c1.135866 2.59033.008656 5.478132-2.581674 6.613998l-1.813231.795105c-2.59033 1.135866-5.478132.008656-6.613997-2.581674l-11.208707-25.737422c-1.172228-2.497175-.008656-5.478131 2.545312-6.520842z" fill="#2e7fb0" fill-opacity=".912889"/></g><g><path d="M4423.1 4s-9.1 0-9.1 9.1v43.8s-.1 9.1 9.1 9.1h43.8s9.1-.5 9.1-9.1V13.1s-.3-9.1-9.1-9.1h-43.8z" fill="none" stroke="#2e7fb0" stroke-width="6" stroke-miterlimit="10"/><path d="M4451.885445 17.316939l1.804979.813665c2.578542 1.162378 3.676068 4.06159 2.51369 6.640133l-11.54295 25.434038c-1.162377 2.578542-4.06159 3.676068-6.640132 2.51369l-1.804979-.813665c-2.578542-1.162378-3.676068-4.06159-2.51369-6.640132l11.507545-25.527562c1.197782-2.485019 4.190518-3.61795 6.675537-2.420167z" fill="#2e7fb0" fill-opacity=".924444"/><path d="M4436.309576 18.130604l1.80498-.813665c2.57854-1.162378 5.477754-.064852 6.640132 2.51369l11.507545 25.527562c1.162378 2.578541.064852 5.477754-2.51369 6.640132l-1.80498.813665c-2.57854 1.162378-5.477754.064852-6.640132-2.51369l-11.47214-25.621084c-1.197783-2.48502-.064853-5.477755 2.478285-6.54661z" fill="#2e7fb0" fill-opacity=".924444"/></g><g><path d="M4493.1 4s-9.1 0-9.1 9.1v43.8s-.1 9.1 9.1 9.1h43.8s9.1-.5 9.1-9.1V13.1s-.3-9.1-9.1-9.1h-43.8z" fill="none" stroke="#2e7fb0" stroke-width="6" stroke-miterlimit="10"/><path d="M4522.06611 17.388354l1.796555.8321c2.566507 1.188714 3.634296 4.09901 2.445581 6.665518l-11.802718 25.314538c-1.188715 2.566507-4.099011 3.634296-6.665518 2.445581l-1.796555-.8321c-2.566507-1.188714-3.634296-4.099011-2.445582-6.665518l11.768274-25.408418c1.22316-2.472627 4.227336-3.57486 6.699963-2.351701z" fill="#2e7fb0" fill-opacity=".935177"/><path d="M4506.137335 18.220454l1.796555-.8321c2.566507-1.188715 5.476804-.120926 6.665518 2.445581l11.768274 25.408419c1.188714 2.566507.120925 5.476803-2.445582 6.665518l-1.796554.8321c-2.566507 1.188714-5.476804.120925-6.665519-2.445582L4503.7262 24.792091c-1.22316-2.472626-.120926-5.476803 2.411136-6.571637z" fill="#2e7fb0" fill-opacity=".935177"/></g><g><path d="M4563.1 4s-9.1 0-9.1 9.1v43.8s-.1 9.1 9.1 9.1h43.8s9.1-.5 9.1-9.1V13.1s-.3-9.1-9.1-9.1h-43.8z" fill="none" stroke="#2e7fb0" stroke-width="6" stroke-miterlimit="10"/><path d="M4592.24554 17.46141l1.787967.850398c2.554237 1.214854 3.59226 4.1359 2.377405 6.690138l-12.060542 25.192723c-1.214854 2.554238-4.1359 3.59226-6.690138 2.377406l-1.787966-.850398c-2.554238-1.214855-3.59226-4.1359-2.377405-6.690138l12.027057-25.286951c1.24834-2.46001 4.263613-3.531517 6.723623-2.283178z" fill="#2e7fb0" fill-opacity=".945088"/><path d="M4575.966493 18.311808l1.787966-.850398c2.554238-1.214854 5.475284-.176832 6.690138 2.377405l12.027058 25.286951c1.214854 2.554237.176832 5.475284-2.377405 6.690138l-1.787967.850398c-2.554237 1.214854-5.475283.176832-6.690137-2.377405l-11.993573-25.381178c-1.24834-2.46001-.176833-5.475284 2.34392-6.595911z" fill="#2e7fb0" fill-opacity=".945088"/></g><g><path d="M4633.1 4s-9.1 0-9.1 9.1v43.8s-.1 9.1 9.1 9.1h43.8s9.1-.5 9.1-9.1V13.1s-.3-9.1-9.1-9.1h-43.8z" fill="none" stroke="#2e7fb0" stroke-width="6" stroke-miterlimit="10"/><path d="M4662.423603 17.536034l1.779222.868544c2.541745 1.240779 3.549995 4.172234 2.309216 6.71398l-12.316228 25.068716c-1.240778 2.541745-4.172234 3.549995-6.71398 2.309216l-1.77922-.868544c-2.541746-1.240778-3.549996-4.172234-2.309218-6.71398l12.283705-25.163279c1.273302-2.447182 4.29932-3.487956 6.746503-2.214653z" fill="#2e7fb0" fill-opacity=".954178"/><path d="M4645.797175 18.404578l1.779222-.868544c2.541745-1.240778 5.473201-.232529 6.71398 2.309216l12.283703 25.16328c1.240779 2.541745.232529 5.4732-2.309216 6.713979l-1.779222.868545c-2.541745 1.240778-5.473201.232528-6.71398-2.309217l-12.25118-25.257842c-1.273302-2.447183-.232528-5.473201 2.276693-6.619417z" fill="#2e7fb0" fill-opacity=".954178"/></g><g><path d="M4703.1 4s-9.1 0-9.1 9.1v43.8s-.1 9.1 9.1 9.1h43.8s9.1-.5 9.1-9.1V13.1s-.3-9.1-9.1-9.1h-43.8z" fill="none" stroke="#2e7fb0" stroke-width="6" stroke-miterlimit="10"/><path d="M4732.600165 17.612145l1.77033.886527c2.529044 1.266467 3.50754 4.207988 2.241073 6.737032l-12.56959 24.942642c-1.266466 2.529044-4.207987 3.50754-6.73703 2.241073l-1.770331-.886527c-2.529043-1.266467-3.50754-4.207988-2.241073-6.737031l12.538025-25.03753c1.298032-2.434156 4.33444-3.444217 6.768596-2.146186z" fill="#2e7fb0" fill-opacity=".962445"/><path d="M4715.629505 18.498672l1.77033-.886527c2.529044-1.266467 5.470564-.28797 6.737032 2.241073l12.538025 25.03753c1.266467 2.529044.28797 5.470565-2.241073 6.737032l-1.77033.886527c-2.529044 1.266467-5.470565.28797-6.737032-2.241073l-12.50646-25.132418c-1.298032-2.434156-.287971-5.470564 2.209508-6.642144z" fill="#2e7fb0" fill-opacity=".962445"/></g><g><path d="M4773.1 4s-9.1 0-9.1 9.1v43.8s-.1 9.1 9.1 9.1h43.8s9.1-.5 9.1-9.1V13.1s-.3-9.1-9.1-9.1h-43.8z" fill="none" stroke="#2e7fb0" stroke-width="6" stroke-miterlimit="10"/><path d="M4802.775097 17.68966l1.761302.904332c2.516145 1.291903 3.464933 4.24314 2.17303 6.759285l-12.820442 24.814638c-1.291903 2.516145-4.24314 3.464934-6.759286 2.17303l-1.761301-.904331c-2.516146-1.291903-3.464934-4.24314-2.17303-6.759285l12.789836-24.90984c1.322509-2.420943 4.368947-3.400338 6.789891-2.077829z" fill="#2e7fb0" fill-opacity=".969891"/><path d="M4785.463601 18.593992l1.761302-.904332c2.516145-1.291902 5.467382-.343114 6.759285 2.17303l12.789837 24.90984c1.291903 2.516145.343115 5.467382-2.17303 6.759285l-1.761303.904332c-2.516145 1.291903-5.467382.343115-6.759285-2.17303l-12.75923-25.00504c-1.32251-2.420945-.343115-5.467383 2.142424-6.664085z" fill="#2e7fb0" fill-opacity=".969891"/></g><g><path d="M4843.1 4s-9.1 0-9.1 9.1v43.8s-.1 9.1 9.1 9.1h43.8s9.1-.5 9.1-9.1V13.1s-.3-9.1-9.1-9.1h-43.8z" fill="none" stroke="#2e7fb0" stroke-width="6" stroke-miterlimit="10"/><path d="M4872.948275 17.76849l1.752146.921947c2.503065 1.317067 3.422213 4.27767 2.105147 6.780734l-13.068612 24.684842c-1.317067 2.503065-4.27767 3.422213-6.780734 2.105147l-1.752146-.921947c-2.503065-1.317067-3.422214-4.27767-2.105147-6.780735l13.038962-24.780344c1.346717-2.407562 4.402822-3.35636 6.810384-2.009644z" fill="#2e7fb0" fill-opacity=".976515"/><path d="M4855.29958 18.690437l1.752145-.921947c2.503065-1.317066 5.463667-.397918 6.780734 2.105147l13.038962 24.780345c1.317067 2.503065.397918 5.463667-2.105147 6.780734l-1.752145.921947c-2.503066 1.317067-5.463668.397918-6.780735-2.105147l-13.009312-24.875848c-1.346716-2.407562-.397918-5.463667 2.075497-6.68523z" fill="#2e7fb0" fill-opacity=".976515"/></g><g><path d="M4913.1 4s-9.1 0-9.1 9.1v43.8s-.1 9.1 9.1 9.1h43.8s9.1-.5 9.1-9.1V13.1s-.3-9.1-9.1-9.1h-43.8z" fill="none" stroke="#2e7fb0" stroke-width="6" stroke-miterlimit="10"/><path d="M4943.119576 17.848543l1.742873.93936c2.489817 1.341942 3.37942 4.311555 2.037478 6.801373l-13.313924 24.5534c-1.341942 2.489817-4.311556 3.37942-6.801373 2.037478l-1.742873-.93936c-2.489817-1.341942-3.37942-4.311555-2.037478-6.801373l13.285227-24.649193c1.37064-2.394024 4.436047-3.312324 6.83007-1.941685z" fill="#2e7fb0" fill-opacity=".982317"/><path d="M4925.137551 18.787902l1.742873-.93936c2.489817-1.341941 5.45943-.452338 6.801373 2.03748l13.285227 24.649193c1.341943 2.489818.45234 5.459431-2.037478 6.801373l-1.742873.93936c-2.489817 1.341942-5.45943.452339-6.801373-2.037479l-13.25653-24.744987c-1.37064-2.394024-.45234-5.459431 2.008781-6.70558z" fill="#2e7fb0" fill-opacity=".982317"/></g><g><path d="M4983.1 4s-9.1 0-9.1 9.1v43.8s-.1 9.1 9.1 9.1h43.8s9.1-.5 9.1-9.1V13.1s-.3-9.1-9.1-9.1h-43.8z" fill="none" stroke="#2e7fb0" stroke-width="6" stroke-miterlimit="10"/><path d="M5013.288882 17.92972l1.733493.95656c2.476418 1.36651 3.336595 4.344781 1.970083 6.8212l-13.556213 24.420463c-1.366512 2.476418-4.344783 3.336596-6.8212 1.970084l-1.733493-.956558c-2.476418-1.366512-3.336595-4.344783-1.970084-6.8212l13.528467-24.516538c1.394259-2.380345 4.468603-3.26827 6.848947-1.87401z" fill="#2e7fb0" fill-opacity=".987297"/><path d="M4994.977625 18.88628l1.733493-.95656c2.476418-1.36651 5.454688-.506334 6.8212 1.970084l13.528466 24.516538c1.366512 2.476418.506334 5.454688-1.970084 6.8212l-1.733492.956558c-2.476418 1.366512-5.454689.506334-6.8212-1.970083l-13.500719-24.612611c-1.39426-2.380345-.506334-5.454688 1.942336-6.725127z" fill="#2e7fb0" fill-opacity=".987297"/></g><g><path d="M5053.1 4s-9.1 0-9.1 9.1v43.8s-.1 9.1 9.1 9.1h43.8s9.1-.5 9.1-9.1V13.1s-.3-9.1-9.1-9.1h-43.8z" fill="none" stroke="#2e7fb0" stroke-width="6" stroke-miterlimit="10"/><path d="M5083.456078 18.011924l1.724018.973531c2.462882 1.39076 3.293777 4.377331 1.903018 6.840214l-13.79532 24.286192c-1.390759 2.462882-4.377331 3.293778-6.840213 1.903019l-1.724018-.973532c-2.462882-1.39076-3.293777-4.377331-1.903018-6.840214l13.768517-24.382533c1.417562-2.366541 4.500475-3.22424 6.867016-1.806677z" fill="#2e7fb0" fill-opacity=".991456"/><path d="M5064.819904 18.985455l1.724018-.973531c2.462882-1.39076 5.449454-.559864 6.840213 1.903018l13.768517 24.382533c1.39076 2.462883.559864 5.449455-1.903018 6.840214l-1.724018.973532c-2.462882 1.390759-5.449454.559864-6.840213-1.903019l-13.741714-24.478874c-1.417562-2.366542-.559864-5.449455 1.876215-6.743873z" fill="#2e7fb0" fill-opacity=".991456"/></g><g><path d="M5123.1 4s-9.1 0-9.1 9.1v43.8s-.1 9.1 9.1 9.1h43.8s9.1-.5 9.1-9.1V13.1s-.3-9.1-9.1-9.1h-43.8z" fill="none" stroke="#2e7fb0" stroke-width="6" stroke-miterlimit="10"/><path d="M5153.621053 18.095047l1.714459.990268c2.449227 1.41467 3.251009 4.409188 1.83634 6.858415l-14.031088 24.150747c-1.414669 2.449227-4.409188 3.25101-6.858415 1.83634l-1.714458-.990268c-2.449227-1.41467-3.25101-4.409188-1.83634-6.858415l14.005223-24.247345c1.440533-2.352629 4.53165-3.180275 6.88428-1.739742z" fill="#2e7fb0" fill-opacity=".994792"/><path d="M5134.664488 19.085315l1.714459-.990268c2.449227-1.41467 5.443746-.612887 6.858415 1.83634l14.005223 24.247344c1.41467 2.449227.612887 5.443746-1.83634 6.858415l-1.714458.990269c-2.449227 1.414669-5.443746.612886-6.858415-1.83634l-13.97936-24.343942c-1.440533-2.35263-.612887-5.443746 1.810476-6.761818z" fill="#2e7fb0" fill-opacity=".994792"/></g><g><path d="M5193.1 4s-9.1 0-9.1 9.1v43.8s-.1 9.1 9.1 9.1h43.8s9.1-.5 9.1-9.1V13.1s-.3-9.1-9.1-9.1h-43.8z" fill="none" stroke="#2e7fb0" stroke-width="6" stroke-miterlimit="10"/><path d="M5223.7837 18.178983l1.704828 1.006758c2.435468 1.438226 3.208331 4.44034 1.770105 6.875807l-14.263368 24.014295c-1.438226 2.435468-4.440339 3.208331-6.875807 1.770105l-1.704828-1.006758c-2.435468-1.438226-3.208331-4.440339-1.770105-6.875807l14.238436-24.111137c1.463157-2.338626 4.562113-3.13642 6.900739-1.673263z" fill="#2e7fb0" fill-opacity=".997307"/><path d="M5204.511472 19.185741l1.704828-1.006758c2.435468-1.438226 5.437582-.665363 6.875808 1.770105l14.238436 24.111137c1.438226 2.435468.665363 5.437581-1.770105 6.875807l-1.704828 1.006759c-2.435468 1.438225-5.437581.665363-6.875807-1.770106l-14.213506-24.207979c-1.463157-2.338626-.665363-5.437581 1.745174-6.778965z" fill="#2e7fb0" fill-opacity=".997307"/></g><g><path d="M5263.1 4s-9.1 0-9.1 9.1v43.8s-.1 9.1 9.1 9.1h43.8s9.1-.5 9.1-9.1V13.1s-.3-9.1-9.1-9.1h-43.8z" fill="none" stroke="#2e7fb0" stroke-width="6" stroke-miterlimit="10"/><path d="M5293.943915 18.263621l1.695137 1.02299c2.421625 1.461416 3.165787 4.470772 1.704371 6.892397l-14.492018 23.877005c-1.461416 2.421625-4.470772 3.165787-6.892396 1.704371l-1.695137-1.02299c-2.421625-1.461416-3.165787-4.470772-1.704371-6.892397l14.468013-23.974081c1.485421-2.324549 4.591853-3.092716 6.916401-1.607295z" fill="#2e7fb0" fill-opacity=".999"/><path d="M5274.360948 19.286612l1.695137-1.02299c2.421624-1.461416 5.43098-.717255 6.892396 1.70437l14.468013 23.974081c1.461415 2.421625.717254 5.43098-1.70437 6.892396l-1.695138 1.022991c-2.421624 1.461416-5.43098.717254-6.892396-1.70437l-14.444008-24.071158c-1.48542-2.324549-.717254-5.43098 1.680366-6.79532z" fill="#2e7fb0" fill-opacity=".999"/></g><g><path d="M5333.1 4s-9.1 0-9.1 9.1v43.8s-.1 9.1 9.1 9.1h43.8s9.1-.5 9.1-9.1V13.1s-.3-9.1-9.1-9.1h-43.8z" fill="none" stroke="#2e7fb0" stroke-width="6" stroke-miterlimit="10"/><path d="M5364.1016 18.348848l1.6854 1.038956c2.407712 1.484224 3.123415 4.500475 1.639192 6.908187l-14.716904 23.739056c-1.484224 2.407713-4.500474 3.123416-6.908187 1.639192l-1.685399-1.038956c-2.407712-1.484224-3.123416-4.500475-1.639192-6.908187l14.693816-23.836354c1.507311-2.310414 4.62086-3.049205 6.931274-1.541894z" fill="#2e7fb0" fill-opacity=".999871"/><path d="M5344.213 19.387804l1.6854-1.038956c2.407712-1.484224 5.423963-.76852 6.908187 1.639192l14.693816 23.836354c1.484224 2.407713.76852 5.423963-1.639193 6.908187l-1.685398 1.038957c-2.407713 1.484224-5.423964.76852-6.908188-1.639193l-14.670728-23.933652c-1.507311-2.310414-.76852-5.423963 1.616105-6.810889z" fill="#2e7fb0" fill-opacity=".999871"/></g><g><path d="M5403.1 4s-9.1 0-9.1 9.1v43.8s-.1 9.1 9.1 9.1h43.8s9.1-.5 9.1-9.1V13.1s-.3-9.1-9.1-9.1h-43.8z" fill="none" stroke="#2e7fb0" stroke-width="6" stroke-miterlimit="10"/><path d="M5434.25666 18.434547l1.675626 1.054646c2.39375 1.506638 3.081263 4.529439 1.574625 6.92319l-14.937891 23.600623c-1.506638 2.39375-4.529439 3.081263-6.92319 1.574625l-1.675625-1.054646c-2.393751-1.506638-3.081264-4.529439-1.574626-6.92319l14.915714-23.698132c1.528815-2.296241 4.649126-3.005932 6.945367-1.477116z" fill="#2e7fb0"/><path d="M5414.067714 19.489193l1.675626-1.054646c2.39375-1.506638 5.416552-.819125 6.92319 1.574625l14.915713 23.698133c1.506638 2.39375.819125 5.416552-1.574626 6.92319l-1.675625 1.054646c-2.39375 1.506638-5.416552.819125-6.92319-1.574626l-14.893535-23.795642c-1.528816-2.296241-.819125-5.416552 1.552447-6.82568z" fill="#2e7fb0"/></g><g><path d="M5473.1 4s-9.1 0-9.1 9.1v43.8s-.1 9.1 9.1 9.1h43.8s9.1-.5 9.1-9.1V13.1s-.3-9.1-9.1-9.1h-43.8z" fill="none" stroke="#2e7fb0" stroke-width="6" stroke-miterlimit="10"/><path d="M5504.409003 18.5206l1.66583 1.07005c2.379758 1.528645 3.03937 4.557656 1.510726 6.937414l-15.154859 23.46189c-1.528644 2.379757-4.557656 3.03937-6.937414 1.510725l-1.66583-1.070051c-2.379757-1.528645-3.03937-4.557657-1.510725-6.937414l15.133581-23.5596c1.549922-2.282047 4.676644-2.962937 6.958691-1.413015z" fill="#2e7fb0"/><path d="M5483.925166 19.59065l1.66583-1.07005c2.379758-1.528645 5.40877-.869033 6.937414 1.510725l15.133581 23.559599c1.528645 2.379757.869032 5.408769-1.510725 6.937414l-1.66583 1.07005c-2.379758 1.528645-5.40877.869033-6.937414-1.510725l-15.112303-23.65731c-1.549923-2.282047-.869032-5.408768 1.489447-6.839703z" fill="#2e7fb0"/></g><g><path d="M5543.1 4s-9.1 0-9.1 9.1v43.8s-.1 9.1 9.1 9.1h43.8s9.1-.5 9.1-9.1V13.1s-.3-9.1-9.1-9.1h-43.8z" fill="none" stroke="#2e7fb0" stroke-width="6" stroke-miterlimit="10"/><path d="M5574.558544 18.606885l1.656026 1.085162c2.365751 1.550233 2.997779 4.58512 1.447546 6.950871l-15.367689 23.32304c-1.550232 2.36575-4.58512 2.997778-6.95087 1.447545l-1.656027-1.085162c-2.365751-1.550233-2.997778-4.58512-1.447546-6.950871l15.347301-23.420939c1.57062-2.267852 4.703407-2.920267 6.97126-1.349646z" fill="#2e7fb0"/><path d="M5553.78543 19.692047l1.656026-1.085162c2.365751-1.550233 5.400639-.918206 6.950871 1.447546l15.3473 23.420938c1.550233 2.365752.918206 5.400639-1.447545 6.950871l-1.656026 1.085163c-2.365752 1.550232-5.400639.918205-6.950871-1.447546l-15.326913-23.518838c-1.57062-2.267852-.918205-5.400639 1.427158-6.852972z" fill="#2e7fb0"/></g><g><path d="M5613.1 4s-9.1 0-9.1 9.1v43.8s-.1 9.1 9.1 9.1h43.8s9.1-.5 9.1-9.1V13.1s-.3-9.1-9.1-9.1h-43.8z" fill="none" stroke="#2e7fb0" stroke-width="6" stroke-miterlimit="10"/><path d="M5644.7052 18.69328l1.646225 1.099973c2.351752 1.57139 2.956532 4.611825 1.385142 6.963576l-15.57627 23.184258c-1.57139 2.351751-4.611824 2.956531-6.963575 1.385142l-1.646226-1.099973c-2.351751-1.57139-2.956531-4.611825-1.385141-6.963576l15.55676-23.282337c1.590899-2.253672 4.729412-2.877961 6.983085-1.287063z" fill="#2e7fb0"/><path d="M5623.648575 19.793253l1.646225-1.099973c2.351752-1.57139 5.392186-.96661 6.963576 1.385142l15.55676 23.282337c1.57139 2.35175.96661 5.392185-1.385141 6.963575l-1.646226 1.099973c-2.351751 1.57139-5.392186.96661-6.963575-1.385141l-15.537252-23.380416c-1.590899-2.253672-.96661-5.392185 1.365633-6.865497z" fill="#2e7fb0"/></g><g><path d="M5683.1 4s-9.1 0-9.1 9.1v43.8s-.1 9.1 9.1 9.1h43.8s9.1-.5 9.1-9.1V13.1s-.3-9.1-9.1-9.1h-43.8z" fill="none" stroke="#2e7fb0" stroke-width="6" stroke-miterlimit="10"/><path d="M5714.848891 18.779663l1.636444 1.114474c2.337776 1.592107 2.91567 4.637766 1.323563 6.975542l-15.780495 23.045736c-1.592106 2.337776-4.637765 2.91567-6.975541 1.323564l-1.636444-1.114475c-2.337776-1.592106-2.91567-4.637765-1.323563-6.975541l15.761853-23.143984c1.610748-2.239529 4.754654-2.836064 6.994183-1.225316z" fill="#2e7fb0"/><path d="M5693.514665 19.894137l1.636444-1.114474c2.337776-1.592107 5.383435-1.014213 6.975541 1.323564l15.761854 23.143983c1.592106 2.337776 1.014212 5.383435-1.323564 6.975541l-1.636443 1.114475c-2.337776 1.592106-5.383435 1.014212-6.975542-1.323564l-15.743212-23.24223c-1.610748-2.23953-1.014212-5.383435 1.304922-6.877295z" fill="#2e7fb0"/></g><g><path d="M5753.1 4s-9.1 0-9.1 9.1v43.8s-.1 9.1 9.1 9.1h43.8s9.1-.5 9.1-9.1V13.1s-.3-9.1-9.1-9.1h-43.8z" fill="none" stroke="#2e7fb0" stroke-width="6" stroke-miterlimit="10"/><path d="M5784.989546 18.865906l1.626691 1.12866c2.323846 1.612373 2.875238 4.662941 1.262866 6.986786l-15.980269 22.907663c-1.612372 2.323845-4.66294 2.875237-6.986785 1.262865l-1.626692-1.12866c-2.323845-1.612372-2.875237-4.66294-1.262865-6.986785l15.962481-23.006069c1.63016-2.22544 4.779133-2.794618 7.004573-1.16446z" fill="#2e7fb0"/><path d="M5763.383763 19.994567l1.626691-1.12866c2.323845-1.612372 5.374414-1.06098 6.986786 1.262865l15.962481 23.006068c1.612372 2.323845 1.06098 5.374414-1.262865 6.986785l-1.626692 1.12866c-2.323845 1.612373-5.374413 1.06098-6.986785-1.262864l-15.944695-23.104474c-1.630159-2.22544-1.06098-5.374414 1.245079-6.88838z" fill="#2e7fb0"/></g><g><path d="M5823.1 4s-9.1 0-9.1 9.1v43.8s-.1 9.1 9.1 9.1h43.8s9.1-.5 9.1-9.1V13.1s-.3-9.1-9.1-9.1h-43.8z" fill="none" stroke="#2e7fb0" stroke-width="6" stroke-miterlimit="10"/><path d="M5855.127093 18.951885l1.616984 1.142524c2.309978 1.632177 2.835274 4.687347 1.203097 6.997325l-16.175496 22.770229c-1.632176 2.309978-4.687347 2.835274-6.997325 1.203097l-1.616984-1.142524c-2.309978-1.632177-2.835274-4.687347-1.203097-6.997325l16.15855-22.868783c1.649123-2.211424 4.802847-2.753665 7.01427-1.104543z" fill="#2e7fb0"/><path d="M5833.255923 20.094409l1.616984-1.142524c2.309978-1.632177 5.365148-1.10688 6.997325 1.203097l16.158551 22.868783c1.632177 2.309978 1.106881 5.365148-1.203097 6.997325l-1.616984 1.142524c-2.309978 1.632177-5.365149 1.10688-6.997325-1.203097L5832.06977 26.99318c-1.649122-2.211424-1.106881-5.365148 1.186152-6.898771z" fill="#2e7fb0"/></g><g><path d="M5893.1 4s-9.1 0-9.1 9.1v43.8s-.1 9.1 9.1 9.1h43.8s9.1-.5 9.1-9.1V13.1s-.3-9.1-9.1-9.1h-43.8z" fill="none" stroke="#2e7fb0" stroke-width="6" stroke-miterlimit="10"/><path d="M5925.261467 19.037472l1.607335 1.156059c2.296194 1.651512 2.795822 4.710985 1.14431 7.007179l-16.366092 22.633626c-1.651513 2.296194-4.710985 2.795822-7.00718 1.14431l-1.607335-1.15606c-2.296194-1.651512-2.795822-4.710985-1.14431-7.007179l16.349976-22.732319c1.66763-2.1975 4.825794-2.713246 7.023296-1.045616z" fill="#2e7fb0"/><path d="M5903.131198 20.19353l1.607335-1.156058c2.296194-1.651513 5.355667-1.151885 7.00718 1.14431l16.349974 22.732318c1.651513 2.296194 1.151885 5.355666-1.14431 7.007179l-1.607335 1.156059c-2.296194 1.651512-5.355666 1.151884-7.007179-1.14431l-16.333857-22.831011c-1.66763-2.197501-1.151885-5.355666 1.128192-6.908486z" fill="#2e7fb0"/></g><g><path d="M5963.1 4s-9.1 0-9.1 9.1v43.8s-.1 9.1 9.1 9.1h43.8s9.1-.5 9.1-9.1V13.1s-.3-9.1-9.1-9.1h-43.8z" fill="none" stroke="#2e7fb0" stroke-width="6" stroke-miterlimit="10"/><path d="M5995.392605 19.12254l1.597759 1.16926c2.282512 1.67037 2.756921 4.733854 1.08655 7.016366l-16.551974 22.498047c-1.670371 2.282512-4.733855 2.756922-7.016368 1.086551l-1.597758-1.16926c-2.282512-1.67037-2.756921-4.733855-1.08655-7.016367l16.53667-22.596869c1.685675-2.18369 4.847981-2.673403 7.031671-.987729z" fill="#2e7fb0"/><path d="M5973.009636 20.2918l1.597759-1.16926c2.282512-1.670371 5.345996-1.195962 7.016367 1.08655l16.536671 22.59687c1.67037 2.282511 1.195961 5.345996-1.08655 7.016367l-1.597759 1.16926c-2.282512 1.67037-5.345996 1.19596-7.016367-1.086552l-16.521368-22.69569c-1.685674-2.18369-1.195961-5.345997 1.071247-6.917546z" fill="#2e7fb0"/></g><g><path d="M6033.1 4s-9.1 0-9.1 9.1v43.8s-.1 9.1 9.1 9.1h43.8s9.1-.5 9.1-9.1V13.1s-.3-9.1-9.1-9.1h-43.8z" fill="none" stroke="#2e7fb0" stroke-width="6" stroke-miterlimit="10"/><path d="M6065.520452 19.20696l1.588266 1.182121c2.268952 1.688744 2.718614 4.755959 1.02987 7.024911l-16.733072 22.363683c-1.688744 2.268952-4.755958 2.718614-7.02491 1.02987l-1.588267-1.182121c-2.268952-1.688744-2.718613-4.755959-1.029869-7.02491l16.718566-22.462627c1.70325-2.17001 4.869406-2.634176 7.039416-.930926z" fill="#2e7fb0"/><path d="M6042.891282 20.389081l1.588266-1.18212c2.268952-1.688744 5.336167-1.239083 7.02491 1.029869l16.718567 22.462626c1.688744 2.268952 1.239083 5.336166-1.02987 7.02491l-1.588266 1.182121c-2.268952 1.688744-5.336167 1.239083-7.02491-1.02987l-16.704061-22.561567c-1.70325-2.17001-1.239083-5.336167 1.015364-6.925969z" fill="#2e7fb0"/></g><g><path d="M6103.1 4s-9.1 0-9.1 9.1v43.8s-.1 9.1 9.1 9.1h43.8s9.1-.5 9.1-9.1V13.1s-.3-9.1-9.1-9.1h-43.8z" fill="none" stroke="#2e7fb0" stroke-width="6" stroke-miterlimit="10"/><path d="M6135.644952 19.290608l1.578873 1.194637c2.255533 1.706626 2.680937 4.777298.974312 7.032832l-16.909311 22.230726c-1.706626 2.255533-4.777298 2.680937-7.032832.974312l-1.578873-1.194638c-2.255533-1.706625-2.680937-4.777298-.974312-7.032831l16.895589-22.32978c1.720348-2.15648 4.890074-2.595606 7.046554-.875258z" fill="#2e7fb0"/><path d="M6112.776175 20.485245l1.578873-1.194637c2.255533-1.706625 5.326206-1.281221 7.032831.974312l16.89559 22.32978c1.706625 2.255533 1.28122 5.326206-.974313 7.032831l-1.578873 1.194638c-2.255533 1.706625-5.326206 1.281221-7.032831-.974312l-16.881866-22.428834c-1.720348-2.15648-1.281222-5.326206.960589-6.933778z" fill="#2e7fb0"/></g><g><path d="M6173.1 4s-9.1 0-9.1 9.1v43.8s-.1 9.1 9.1 9.1h43.8s9.1-.5 9.1-9.1V13.1s-.3-9.1-9.1-9.1h-43.8z" fill="none" stroke="#2e7fb0" stroke-width="6" stroke-miterlimit="10"/><path d="M6205.766056 19.373355l1.569592 1.206805c2.242275 1.724008 2.643932 4.797877.919925 7.040152l-17.080634 22.099366c-1.724007 2.242275-4.797877 2.643932-7.040152.919924l-1.569592-1.206805c-2.242275-1.724008-2.643932-4.797877-.919925-7.040152l17.067677-22.198523c1.736964-2.143118 4.90999-2.557732 7.053109-.820767z" fill="#2e7fb0"/><path d="M6182.664352 20.58016l1.569592-1.206805c2.242275-1.724008 5.316145-1.322351 7.040152.919924l17.067677 22.198523c1.724008 2.242275 1.32235 5.316144-.919924 7.040152l-1.569593 1.206805c-2.242275 1.724008-5.316144 1.32235-7.040152-.919924l-17.05472-22.29768c-1.736964-2.143118-1.32235-5.316144.906968-6.940995z" fill="#2e7fb0"/></g><g><path d="M6243.1 4s-9.1 0-9.1 9.1v43.8s-.1 9.1 9.1 9.1h43.8s9.1-.5 9.1-9.1V13.1s-.3-9.1-9.1-9.1h-43.8z" fill="none" stroke="#2e7fb0" stroke-width="6" stroke-miterlimit="10"/><path d="M6275.883717 19.455075l1.560437 1.21862c2.229197 1.740886 2.607637 4.8177.866751 7.046896l-17.246978 21.969791c-1.740886 2.229197-4.8177 2.607637-7.046896.866751l-1.560437-1.21862c-2.229197-1.740886-2.607637-4.8177-.866751-7.046896l17.23477-22.069043c1.753094-2.129945 4.92916-2.520593 7.059104-.7675z" fill="#2e7fb0"/><path d="M6252.555846 20.673695l1.560437-1.21862c2.229196-1.740886 5.30601-1.362446 7.046896.86675l17.23477 22.069044c1.740887 2.229196 1.362446 5.30601-.86675 7.046896l-1.560438 1.21862c-2.229196 1.740886-5.30601 1.362446-7.046896-.86675l-17.222563-22.168296c-1.753093-2.129945-1.362445-5.30601.854544-6.947644z" fill="#2e7fb0"/></g><g><path d="M6313.1 4s-9.1 0-9.1 9.1v43.8s-.1 9.1 9.1 9.1h43.8s9.1-.5 9.1-9.1V13.1s-.3-9.1-9.1-9.1h-43.8z" fill="none" stroke="#2e7fb0" stroke-width="6" stroke-miterlimit="10"/><path d="M6345.997893 19.535643l1.551422 1.230078c2.216316 1.757254 2.572089 4.836771.814834 7.053087L6330.955855 49.661c-1.757254 2.216316-4.836771 2.57209-7.053087.814835l-1.551422-1.230078c-2.216316-1.757255-2.572089-4.836772-.814835-7.053088l17.396818-21.94153c1.76873-2.116977 4.947587-2.484226 7.064564-.715495z" fill="#2e7fb0"/><path d="M6322.450685 20.76572l1.551422-1.230077c2.216316-1.757255 5.295833-1.401482 7.053087.814835l17.396818 21.94153c1.757254 2.216316 1.401481 5.295833-.814835 7.053087l-1.551421 1.230078c-2.216316 1.757254-5.295833 1.401481-7.053088-.814835l-17.38534-22.040869c-1.768732-2.116977-1.401482-5.295833.803357-6.953748z" fill="#2e7fb0"/></g><g><path d="M6383.1 4s-9.1 0-9.1 9.1v43.8s-.1 9.1 9.1 9.1h43.8s9.1-.5 9.1-9.1V13.1s-.3-9.1-9.1-9.1h-43.8z" fill="none" stroke="#2e7fb0" stroke-width="6" stroke-miterlimit="10"/><path d="M6416.108545 19.614935l1.542558 1.241176c2.203653 1.773108 2.537326 4.855098.764217 7.058751l-17.564533 21.716749c-1.773108 2.203653-4.855098 2.537326-7.058751.764217l-1.542558-1.241175c-2.203653-1.773108-2.537326-4.855098-.764217-7.058752l17.55377-21.816167c1.783871-2.104234 4.96528-2.44867 7.069514-.664799z" fill="#2e7fb0"/><path d="M6392.348897 20.85611l1.542558-1.241175c2.203653-1.773108 5.285643-1.439435 7.058751.764218l17.55377 21.816167c1.773108 2.203654 1.439435 5.285644-.764218 7.058752l-1.542557 1.241175c-2.203653 1.773109-5.285644 1.439436-7.058752-.764217l-17.543006-21.915587c-1.783872-2.104234-1.439435-5.285643.753454-6.959332z" fill="#2e7fb0"/></g><g><path d="M6453.1 4s-9.1 0-9.1 9.1v43.8s-.1 9.1 9.1 9.1h43.8s9.1-.5 9.1-9.1V13.1s-.3-9.1-9.1-9.1h-43.8z" fill="none" stroke="#2e7fb0" stroke-width="6" stroke-miterlimit="10"/><path d="M6486.215638 19.69283l1.533858 1.25191c2.191226 1.788442 2.503383 4.872686.71494 7.063912L6470.748784 49.6023c-1.788443 2.191226-4.872686 2.503383-7.063913.71494l-1.533858-1.25191c-2.191226-1.788443-2.503383-4.872686-.71494-7.063912l17.705584-21.69314c1.798512-2.091734 4.982247-2.41396 7.073982-.615448z" fill="#2e7fb0"/><path d="M6462.250504 20.94474l1.533858-1.25191c2.191226-1.788443 5.27547-1.476286 7.063913.71494l17.705584 21.69314c1.788443 2.191225 1.476285 5.275469-.71494 7.063912l-1.533859 1.25191c-2.191226 1.788443-5.27547 1.476286-7.063913-.71494l-17.695514-21.792632c-1.798512-2.091734-1.476286-5.27547.70487-6.96442z" fill="#2e7fb0"/></g><g><path d="M6523.1 4s-9.1 0-9.1 9.1v43.8s-.1 9.1 9.1 9.1h43.8s9.1-.5 9.1-9.1V13.1s-.3-9.1-9.1-9.1h-43.8z" fill="none" stroke="#2e7fb0" stroke-width="6" stroke-miterlimit="10"/><path d="M6556.319138 19.769205l1.525337 1.262278c2.179053 1.803255 2.470297 4.889544.667042 7.068597l-17.861616 21.473068c-1.803255 2.179053-4.889544 2.470297-7.068597.667042l-1.525337-1.262278c-2.179053-1.803255-2.470297-4.889544-.667042-7.068597l17.852222-21.572626c1.81265-2.079495 4.998496-2.380134 7.077991-.567484z" fill="#2e7fb0"/><path d="M6532.155525 21.031483l1.525337-1.262278c2.179053-1.803255 5.265342-1.51201 7.068596.667042l17.852222 21.572626c1.803255 2.179053 1.512011 5.265342-.667042 7.068596l-1.525337 1.262279c-2.179053 1.803254-5.265342 1.51201-7.068597-.667043l-17.842826-21.672183c-1.81265-2.079495-1.512011-5.265342.657647-6.969039z" fill="#2e7fb0"/></g><g><path d="M6593.1 4s-9.1 0-9.1 9.1v43.8s-.1 9.1 9.1 9.1h43.8s9.1-.5 9.1-9.1V13.1s-.3-9.1-9.1-9.1h-43.8z" fill="none" stroke="#2e7fb0" stroke-width="6" stroke-miterlimit="10"/><path d="M6626.419017 19.843943l1.517006 1.272278c2.167152 1.81754 2.4381 4.905677.62056 7.072829l-18.002388 21.355186c-1.81754 2.167152-4.905677 2.438101-7.072829.620561l-1.517006-1.272278c-2.167152-1.81754-2.438101-4.905677-.62056-7.072829l17.993648-21.454804c1.82628-2.067534 5.014034-2.347223 7.081569-.520943z" fill="#2e7fb0"/><path d="M6602.063977 21.116221l1.517006-1.272278c2.167152-1.81754 5.255289-1.546591 7.072829.62056l17.993649 21.454805c1.81754 2.167152 1.54659 5.255288-.620561 7.072828l-1.517006 1.272278c-2.167152 1.81754-5.255289 1.546592-7.072829-.62056l-17.984908-21.554421c-1.82628-2.067535-1.546592-5.255289.61182-6.973212z" fill="#2e7fb0"/></g><g><path d="M6663.1 4s-9.1 0-9.1 9.1v43.8s-.1 9.1 9.1 9.1h43.8s9.1-.5 9.1-9.1V13.1s-.3-9.1-9.1-9.1h-43.8z" fill="none" stroke="#2e7fb0" stroke-width="6" stroke-miterlimit="10"/><path d="M6696.515247 19.916927l1.508878 1.281908c2.15554 1.831296 2.40683 4.921095.575533 7.076635l-18.137941 21.240176c-1.831297 2.15554-4.921095 2.40683-7.076635.575533l-1.508878-1.281908c-2.15554-1.831296-2.40683-4.921095-.575533-7.076635l18.129835-21.339847c1.839403-2.05587 5.028872-2.315264 7.084741-.475862z" fill="#2e7fb0"/><path d="M6671.975875 21.198835l1.508878-1.281908c2.15554-1.831296 5.245338-1.580007 7.076635.575533l18.129835 21.339847c1.831296 2.15554 1.580007 5.245339-.575533 7.076635l-1.508878 1.281908c-2.15554 1.831296-5.245338 1.580007-7.076635-.575533L6671.408448 28.1758c-1.839402-2.05587-1.580007-5.245339.567427-6.976964z" fill="#2e7fb0"/></g><g><path d="M6733.1 4s-9.1 0-9.1 9.1v43.8s-.1 9.1 9.1 9.1h43.8s9.1-.5 9.1-9.1V13.1s-.3-9.1-9.1-9.1h-43.8z" fill="none" stroke="#2e7fb0" stroke-width="6" stroke-miterlimit="10"/><path d="M6766.607806 19.988044l1.500965 1.291164c2.144235 1.84452 2.376513 4.935806.531993 7.080041l-18.268248 21.128207c-1.84452 2.144235-4.935806 2.376514-7.080041.531993l-1.500965-1.291164c-2.144235-1.844521-2.376513-4.935807-.531992-7.080042l18.260754-21.227925c1.852014-2.044516 5.043018-2.284288 7.087534-.432274z" fill="#2e7fb0"/><path d="M6741.89123 21.279208l1.500964-1.291164c2.144235-1.844521 5.23552-1.612242 7.08004.531993l18.260756 21.227925c1.84452 2.144235 1.612242 5.23552-.531993 7.080042l-1.500965 1.291164c-2.144235 1.84452-5.23552 1.612242-7.08004-.531993l-18.253263-21.327644c-1.852013-2.044517-1.612242-5.235521.5245-6.980323z" fill="#2e7fb0"/></g><g><path d="M6803.1 4s-9.1 0-9.1 9.1v43.8s-.1 9.1 9.1 9.1h43.8s9.1-.5 9.1-9.1V13.1s-.3-9.1-9.1-9.1h-43.8z" fill="none" stroke="#2e7fb0" stroke-width="6" stroke-miterlimit="10"/><path d="M6836.696673 20.05718l1.493277 1.300048c2.133253 1.857211 2.347186 4.94982.489975 7.083073l-18.393286 21.019444c-1.857211 2.133253-4.94982 2.347186-7.083074.489975l-1.493277-1.300047c-2.133253-1.857211-2.347186-4.94982-.489975-7.083073l18.386386-21.119205c1.864112-2.033492 5.056483-2.254326 7.089974-.390214z" fill="#2e7fb0"/><path d="M6811.81005 21.357228l1.493277-1.300047c2.133253-1.85721 5.225862-1.643278 7.083073.489975l18.386386 21.119205c1.85721 2.133253 1.643278 5.225863-.489975 7.083073l-1.493278 1.300048c-2.133253 1.85721-5.225862 1.643278-7.083073-.489975l-18.379484-21.218967c-1.864112-2.033492-1.643278-5.225863.483074-6.983312z" fill="#2e7fb0"/></g><g><path d="M6873.1 4s-9.1 0-9.1 9.1v43.8s-.1 9.1 9.1 9.1h43.8s9.1-.5 9.1-9.1V13.1s-.3-9.1-9.1-9.1h-43.8z" fill="none" stroke="#2e7fb0" stroke-width="6" stroke-miterlimit="10"/><path d="M6906.781829 20.12423l1.485827 1.308556c2.12261 1.869364 2.318877 4.963145.449512 7.085756l-18.51304 20.914047c-1.869364 2.12261-4.963145 2.318876-7.085756.449512l-1.485827-1.308556c-2.122611-1.869364-2.318877-4.963145-.449512-7.085756l18.506708-21.013846c1.875696-2.022811 5.069276-2.225408 7.092088-.349712z" fill="#2e7fb0"/><path d="M6881.732344 21.432786l1.485827-1.308555c2.122611-1.869365 5.216392-1.6731 7.085756.449512l18.50671 21.013846c1.869364 2.12261 1.673098 5.216391-.449513 7.085756l-1.485827 1.308555c-2.12261 1.869364-5.216392 1.673099-7.085756-.449512l-18.500378-21.113646c-1.875696-2.02281-1.673099-5.216391.44318-6.985956z" fill="#2e7fb0"/></g><g><path d="M6943.1 4s-9.1 0-9.1 9.1v43.8s-.1 9.1 9.1 9.1h43.8s9.1-.5 9.1-9.1V13.1s-.3-9.1-9.1-9.1h-43.8z" fill="none" stroke="#2e7fb0" stroke-width="6" stroke-miterlimit="10"/><path d="M6976.863257 20.189087l1.478627 1.316687c2.112324 1.88098 2.291614 4.975791.410634 7.088115l-18.627492 20.812173c-1.880981 2.112324-4.975792 2.291615-7.088116.410634l-1.478626-1.316686c-2.112324-1.880981-2.291615-4.975792-.410634-7.088116l18.621708-20.912005c1.886764-2.012491 5.081408-2.197566 7.0939-.310802z" fill="#2e7fb0"/><path d="M6951.658116 21.505774l1.478627-1.316687c2.112324-1.88098 5.207135-1.70169 7.088115.410634l18.621709 20.912006c1.88098 2.112324 1.70169 5.207135-.410634 7.088115l-1.478627 1.316687c-2.112324 1.88098-5.207135 1.70169-7.088115-.410634l-18.615925-21.011838c-1.886764-2.012492-1.70169-5.207135.40485-6.988283z" fill="#2e7fb0"/></g><g><path d="M7013.1 4s-9.1 0-9.1 9.1v43.8s-.1 9.1 9.1 9.1h43.8s9.1-.5 9.1-9.1V13.1s-.3-9.1-9.1-9.1h-43.8z" fill="none" stroke="#2e7fb0" stroke-width="6" stroke-miterlimit="10"/><path d="M7046.940945 20.25165l1.471685 1.32444c2.102407 1.892058 2.265428 4.987768.37337 7.090176l-18.73663 20.713973c-1.892058 2.102407-4.987769 2.265428-7.090176.37337l-1.471685-1.32444c-2.102408-1.892058-2.265429-4.987769-.373371-7.090176l18.731372-20.813834c1.897316-2.002546 5.092889-2.170826 7.095435-.27351z" fill="#2e7fb0"/><path d="M7021.58737 21.57609l1.471685-1.32444c2.102408-1.892058 5.198119-1.729037 7.090176.37337l18.731372 20.813835c1.892058 2.102407 1.729037 5.198118-.37337 7.090175l-1.471686 1.32444c-2.102407 1.892059-5.198118 1.729038-7.090176-.37337l-18.726113-20.913696c-1.897316-2.002546-1.729037-5.198118.368112-6.990314z" fill="#2e7fb0"/></g><g><path d="M7083.1 4s-9.1 0-9.1 9.1v43.8s-.1 9.1 9.1 9.1h43.8s9.1-.5 9.1-9.1V13.1s-.3-9.1-9.1-9.1h-43.8z" fill="none" stroke="#2e7fb0" stroke-width="6" stroke-miterlimit="10"/><path d="M7117.014879 20.311818l1.465013 1.331817c2.092877 1.902594 2.240346 4.999085.33775 7.091962l-18.840446 20.619592c-1.902594 2.092876-4.999085 2.240345-7.091962.33775l-1.465013-1.331816c-2.092877-1.902595-2.240345-4.999086-.33775-7.091962l18.835689-20.71948c1.907352-1.99299 5.103729-2.145215 7.096719-.237863z" fill="#2e7fb0"/><path d="M7091.520108 21.643635l1.465013-1.331817c2.092877-1.902595 5.189367-1.755126 7.091962.33775l18.83569 20.71948c1.902594 2.092876 1.755126 5.189366-.33775 7.091961l-1.465014 1.331817c-2.092877 1.902595-5.189368 1.755126-7.091962-.33775l-18.830933-20.819366c-1.907352-1.99299-1.755126-5.189367.332994-6.992075z" fill="#2e7fb0"/></g><g><path d="M7153.1 4s-9.1 0-9.1 9.1v43.8s-.1 9.1 9.1 9.1h43.8s9.1-.5 9.1-9.1V13.1s-.3-9.1-9.1-9.1h-43.8z" fill="none" stroke="#2e7fb0" stroke-width="6" stroke-miterlimit="10"/><path d="M7187.08505 20.369499l1.458622 1.338813c2.083745 1.912592 2.21639 5.009752.303799 7.093498l-18.938932 20.529171c-1.912591 2.083746-5.009752 2.21639-7.093497.3038l-1.458622-1.338815c-2.083746-1.91259-2.21639-5.009752-.303799-7.093497l18.934653-20.62908c1.91687-1.983837 5.113939-2.12076 7.097776-.20389z" fill="#2e7fb0"/><path d="M7161.456328 21.708312l1.458622-1.338813c2.083746-1.912592 5.180906-1.779947 7.093498.303798l18.934652 20.62908c1.912591 2.083746 1.779947 5.180907-.303799 7.093498l-1.458622 1.338814c-2.083745 1.91259-5.180906 1.779946-7.093497-.3038l-18.930374-20.728987c-1.91687-1.983838-1.779946-5.180907.29952-6.99359z" fill="#2e7fb0"/></g><g><path d="M7223.1 4s-9.1 0-9.1 9.1v43.8s-.1 9.1 9.1 9.1h43.8s9.1-.5 9.1-9.1V13.1s-.3-9.1-9.1-9.1h-43.8z" fill="none" stroke="#2e7fb0" stroke-width="6" stroke-miterlimit="10"/><path d="M7257.15145 20.4246l1.452518 1.345432c2.075028 1.922046 2.193588 5.019778.271542 7.094806l-19.03208 20.442845c-1.922047 2.075027-5.019779 2.193588-7.094806.271541l-1.45252-1.345432c-2.075027-1.922046-2.193587-5.019778-.271541-7.094805l19.028256-20.542772c1.92587-1.9751 5.12353-2.097486 7.09863-.171615z" fill="#2e7fb0"/><path d="M7231.396032 21.770032l1.452519-1.345432c2.075027-1.922046 5.17276-1.803485 7.094805.271542l19.028257 20.542772c1.922046 2.075027 1.803485 5.172759-.271542 7.094805l-1.45252 1.345432c-2.075027 1.922046-5.172759 1.803486-7.094805-.271542l-19.024432-20.642698c-1.92587-1.9751-1.803485-5.17276.267718-6.994879z" fill="#2e7fb0"/></g><g><path d="M7293.1 4s-9.1 0-9.1 9.1v43.8s-.1 9.1 9.1 9.1h43.8s9.1-.5 9.1-9.1V13.1s-.3-9.1-9.1-9.1h-43.8z" fill="none" stroke="#2e7fb0" stroke-width="6" stroke-miterlimit="10"/><path d="M7327.21407 20.477035l1.446715 1.351672c2.066735 1.93096 2.171962 5.029173.241003 7.095908l-19.119892 20.360741c-1.930959 2.066736-5.029172 2.171962-7.095908.241003l-1.446715-1.351671c-2.066736-1.93096-2.171962-5.029173-.241003-7.095909l19.116497-20.460683c1.934353-1.966793 5.13251-2.075414 7.099303-.14106z" fill="#2e7fb0"/><path d="M7301.339215 21.828707l1.446715-1.351672c2.066736-1.930959 5.16495-1.825732 7.095909.241003l19.116497 20.460683c1.930959 2.066736 1.825732 5.16495-.241003 7.095909l-1.446715 1.351671c-2.066736 1.93096-5.16495 1.825733-7.095909-.241003l-19.113102-20.560625c-1.934354-1.966793-1.825733-5.16495.237608-6.995966z" fill="#2e7fb0"/></g><g><path d="M7363.1 4s-9.1 0-9.1 9.1v43.8s-.1 9.1 9.1 9.1h43.8s9.1-.5 9.1-9.1V13.1s-.3-9.1-9.1-9.1h-43.8z" fill="none" stroke="#2e7fb0" stroke-width="6" stroke-miterlimit="10"/><path d="M7397.272906 20.526722l1.441217 1.357531c2.058883 1.93933 2.151536 5.037946.212205 7.096828l-19.20236 20.282981c-1.939331 2.058883-5.037947 2.151536-7.09683.212205l-1.441217-1.357531c-2.058882-1.93933-2.151535-5.037946-.212204-7.096828l19.199372-20.382937c1.94232-1.958927 5.14089-2.054569 7.099817-.11225z" fill="#2e7fb0"/><path d="M7371.285877 21.884253l1.441217-1.357531c2.058883-1.93933 5.157498-1.846678 7.096828.212204l19.199373 20.382937c1.93933 2.058882 1.846677 5.157498-.212205 7.096828l-1.441218 1.357531c-2.058882 1.939331-5.157497 1.846678-7.096828-.212204l-19.196383-20.482892c-1.94232-1.958927-1.846678-5.157498.209216-6.996873z" fill="#2e7fb0"/></g><g><path d="M7433.1 4s-9.1 0-9.1 9.1v43.8s-.1 9.1 9.1 9.1h43.8s9.1-.5 9.1-9.1V13.1s-.3-9.1-9.1-9.1h-43.8z" fill="none" stroke="#2e7fb0" stroke-width="6" stroke-miterlimit="10"/><path d="M7467.327953 20.57358l1.436036 1.363013c2.05148 1.94716 2.132327 5.046105.185167 7.097585l-19.27949 20.209682c-1.94716 2.05148-5.046105 2.132327-7.097585.185167l-1.436036-1.363012c-2.05148-1.94716-2.132327-5.046105-.185167-7.097585l19.276882-20.309648c1.949768-1.951513 5.14868-2.03497 7.100193-.085201z" fill="#2e7fb0"/><path d="M7441.236011 21.936593l1.436036-1.363012c2.05148-1.94716 5.150425-1.866312 7.097585.185167l19.276882 20.309648c1.94716 2.05148 1.866312 5.150426-.185167 7.097585l-1.436036 1.363012c-2.05148 1.94716-5.150425 1.866312-7.097585-.185167l-19.274274-20.409614c-1.949768-1.951514-1.866312-5.150426.18256-6.99762z" fill="#2e7fb0"/></g><g><path d="M7503.1 4s-9.1 0-9.1 9.1v43.8s-.1 9.1 9.1 9.1h43.8s9.1-.5 9.1-9.1V13.1s-.3-9.1-9.1-9.1h-43.8z" fill="none" stroke="#2e7fb0" stroke-width="6" stroke-miterlimit="10"/><path d="M7537.379208 20.617538l1.431177 1.368113c2.044538 1.954447 2.114358 5.05366.159911 7.0982l-19.35128 20.140952c-1.954447 2.044538-5.05366 2.114358-7.098199.159911l-1.431176-1.368113c-2.044538-1.954447-2.114359-5.05366-.159912-7.098199l19.349028-20.240927c1.9567-1.944564 5.155887-2.016636 7.10045-.059937z" fill="#2e7fb0"/><path d="M7511.189615 21.985651l1.431177-1.368113c2.044538-1.954447 5.143752-1.884627 7.098199.159911l19.349027 20.240928c1.954448 2.044538 1.884627 5.143752-.159911 7.098199l-1.431177 1.368113c-2.044538 1.954447-5.143751 1.884627-7.098199-.159912l-19.346775-20.340902c-1.9567-1.944563-1.884626-5.143751.15766-6.998224z" fill="#2e7fb0"/></g><g><path d="M7573.1 4s-9.1 0-9.1 9.1v43.8s-.1 9.1 9.1 9.1h43.8s9.1-.5 9.1-9.1V13.1s-.3-9.1-9.1-9.1h-43.8z" fill="none" stroke="#2e7fb0" stroke-width="6" stroke-miterlimit="10"/><path d="M7607.426668 20.658525l1.426648 1.372835c2.038068 1.961192 2.097647 5.06062.136454 7.098688l-19.417731 20.076895c-1.961193 2.038069-5.06062 2.097647-7.098689.136454l-1.426648-1.372835c-2.038068-1.961192-2.097646-5.06062-.136454-7.098688l19.41581-20.176877c1.963114-1.938087 5.162523-1.999587 7.10061-.036472z" fill="#2e7fb0"/><path d="M7581.146684 22.03136l1.426648-1.372835c2.038068-1.961193 5.137496-1.901615 7.098688.136454l19.41581 20.176876c1.961193 2.038069 1.901614 5.137496-.136454 7.098689l-1.426648 1.372835c-2.038069 1.961193-5.137496 1.901614-7.098689-.136454l-19.413887-20.276858c-1.963115-1.938087-1.901614-5.137496.134532-6.998707z" fill="#2e7fb0"/></g><g><path d="M7643.1 4s-9.1 0-9.1 9.1v43.8s-.1 9.1 9.1 9.1h43.8s9.1-.5 9.1-9.1V13.1s-.3-9.1-9.1-9.1h-43.8z" fill="none" stroke="#2e7fb0" stroke-width="6" stroke-miterlimit="10"/><path d="M7677.470332 20.696475l1.422456 1.377178c2.03208 1.967397 2.08221 5.066992.114812 7.099072l-19.478847 20.017605c-1.967397 2.03208-5.066992 2.082209-7.099072.114812l-1.422456-1.377178c-2.03208-1.967397-2.08221-5.066992-.114812-7.099072l19.47723-20.117591c1.969014-1.932094 5.168596-1.98384 7.100689-.014826z" fill="#2e7fb0"/><path d="M7651.107212 22.073653l1.422456-1.377178c2.03208-1.967397 5.131675-1.917268 7.099072.114812l19.47723 20.117592c1.967397 2.03208 1.917268 5.131675-.114812 7.099072l-1.422456 1.377178c-2.03208 1.967397-5.131675 1.917268-7.099072-.114812l-19.475613-20.21758c-1.969014-1.932092-1.917268-5.131674.113195-6.999084z" fill="#2e7fb0"/></g><g><path d="M7713.1 4s-9.1 0-9.1 9.1v43.8s-.1 9.1 9.1 9.1h43.8s9.1-.5 9.1-9.1V13.1s-.3-9.1-9.1-9.1h-43.8z" fill="none" stroke="#2e7fb0" stroke-width="6" stroke-miterlimit="10"/><path d="M7747.510198 20.73133l1.418607 1.381142c2.026582 1.97306 2.068062 5.072782.095002 7.099364l-19.534632 19.96317c-1.97306 2.026583-5.072782 2.068062-7.099364.095002l-1.418607-1.381142c-2.026582-1.97306-2.068062-5.072782-.095002-7.099364l19.533294-20.063162c1.974398-1.92659 5.174111-1.969408 7.100702.00499z" fill="#2e7fb0"/><path d="M7721.071195 22.112472l1.418607-1.381142c2.026582-1.97306 5.126304-1.93158 7.099364.095001l19.533294 20.063162c1.97306 2.026582 1.93158 5.126304-.095002 7.099364L7747.608851 49.37c-2.026582 1.97306-5.126304 1.93158-7.099364-.095001l-19.531956-20.163153c-1.974398-1.92659-1.93158-5.126304.093664-6.999373z" fill="#2e7fb0"/></g><g><path d="M7783.1 4s-9.1 0-9.1 9.1v43.8s-.1 9.1 9.1 9.1h43.8s9.1-.5 9.1-9.1V13.1s-.3-9.1-9.1-9.1h-43.8z" fill="none" stroke="#2e7fb0" stroke-width="6" stroke-miterlimit="10"/><path d="M7817.546266 20.763034l1.415108 1.384727c2.021582 1.978182 2.055218 5.078.077035 7.099582l-19.585087 19.913673c-1.978182 2.021582-5.078 2.055217-7.099582.077035l-1.415108-1.384727c-2.021582-1.978182-2.055218-5.078-.077036-7.099582l19.584003-20.013667c1.979267-1.921588 5.179079-1.956308 7.100667.022959z" fill="#2e7fb0"/><path d="M7791.038626 22.147761l1.415108-1.384727c2.021582-1.978182 5.1214-1.944547 7.099582.077035l19.584003 20.013667c1.978182 2.021582 1.944546 5.1214-.077036 7.099582l-1.415108 1.384727c-2.021582 1.978182-5.1214 1.944547-7.099582-.077035l-19.582917-20.11366c-1.979268-1.92159-1.944547-5.1214.07595-6.999589z" fill="#2e7fb0"/></g><g><path d="M7853.1 4s-9.1 0-9.1 9.1v43.8s-.1 9.1 9.1 9.1h43.8s9.1-.5 9.1-9.1V13.1s-.3-9.1-9.1-9.1h-43.8z" fill="none" stroke="#2e7fb0" stroke-width="6" stroke-miterlimit="10"/><path d="M7887.578536 20.791537l1.411962 1.387934c2.01709 1.982764 2.043691 5.08265.060927 7.099739l-19.630219 19.869184c-1.982763 2.01709-5.08265 2.043691-7.099738.060928l-1.411962-1.387935c-2.01709-1.982764-2.043692-5.08265-.060928-7.099739l19.629361-19.96918c1.983622-1.917093 5.183504-1.944553 7.100597.039069z" fill="#2e7fb0"/><path d="M7861.009502 22.179471l1.411962-1.387934c2.01709-1.982764 5.116975-1.956162 7.099739.060927l19.62936 19.96918c1.982764 2.01709 1.956162 5.116976-.060927 7.09974l-1.411962 1.387934c-2.017089 1.982764-5.116975 1.956162-7.099739-.060927l-19.628502-20.069178c-1.983622-1.917092-1.956162-5.116974.060069-6.999742z" fill="#2e7fb0"/></g><g><path d="M7923.1 4s-9.1 0-9.1 9.1v43.8s-.1 9.1 9.1 9.1h43.8s9.1-.5 9.1-9.1V13.1s-.3-9.1-9.1-9.1h-43.8z" fill="none" stroke="#2e7fb0" stroke-width="6" stroke-miterlimit="10"/><path d="M7957.607008 20.816793l1.409175 1.390764c2.013109 1.986805 2.033493 5.086738.046688 7.099846l-19.67003 19.829774c-1.986805 2.013108-5.086738 2.033493-7.099846.046688l-1.409176-1.390764c-2.013108-1.986805-2.033493-5.086738-.046688-7.099847l19.669372-19.929771c1.987463-1.91311 5.187394-1.934153 7.100505.05331z" fill="#2e7fb0"/><path d="M7930.983817 22.207557l1.409175-1.390764c2.013109-1.986805 5.113042-1.96642 7.099847.046688l19.669372 19.929771c1.986806 2.013108 1.96642 5.113041-.046687 7.099847l-1.409176 1.390763c-2.013108 1.986806-5.113041 1.96642-7.099847-.046687l-19.668714-20.02977c-1.987463-1.91311-1.966421-5.11304.04603-6.999848z" fill="#2e7fb0"/></g><g><path d="M7993.1 4s-9.1 0-9.1 9.1v43.8s-.1 9.1 9.1 9.1h43.8s9.1-.5 9.1-9.1V13.1s-.3-9.1-9.1-9.1h-43.8z" fill="none" stroke="#2e7fb0" stroke-width="6" stroke-miterlimit="10"/><path d="M8027.631681 20.838763l1.406753 1.393215c2.009646 1.990307 2.024634 5.090271.034327 7.099917l-19.704524 19.795498c-1.990307 2.009646-5.090271 2.024634-7.099917.034327l-1.406753-1.393215c-2.009646-1.990307-2.024633-5.09027-.034326-7.099917l19.70404-19.895497c1.99079-1.909647 5.190753-1.925118 7.1004.065672z" fill="#2e7fb0"/><path d="M8000.961566 22.231978l1.406753-1.393215c2.009646-1.990307 5.10961-1.975319 7.099917.034327l19.70404 19.895497c1.990307 2.009646 1.97532 5.10961-.034327 7.099917l-1.406752 1.393215c-2.009646 1.990307-5.10961 1.97532-7.099917-.034327l-19.703557-19.995495c-1.99079-1.909648-1.97532-5.10961.033843-6.999919z" fill="#2e7fb0"/></g><g><path d="M8063.1 4s-9.1 0-9.1 9.1v43.8s-.1 9.1 9.1 9.1h43.8s9.1-.5 9.1-9.1V13.1s-.3-9.1-9.1-9.1h-43.8z" fill="none" stroke="#2e7fb0" stroke-width="6" stroke-miterlimit="10"/><path d="M8097.652558 20.857413l1.404696 1.395288c2.006708 1.99327 2.017122 5.093253.023853 7.09996l-19.733705 19.76641c-1.99327 2.006707-5.093252 2.017122-7.09996.023852l-1.404695-1.395289c-2.006708-1.993269-2.017123-5.093252-.023853-7.09996l19.733368-19.866408c1.993606-1.906708 5.193588-1.917459 7.100296.076147z" fill="#2e7fb0"/><path d="M8070.942746 22.252701l1.404696-1.395288c2.006708-1.99327 5.10669-1.982855 7.09996.023853l19.733368 19.866408c1.99327 2.006708 1.982855 5.10669-.023853 7.09996l-1.404695 1.395289c-2.006708 1.99327-5.10669 1.982854-7.09996-.023853l-19.733033-19.966408c-1.993605-1.906708-1.982855-5.10669.023517-6.99996z" fill="#2e7fb0"/></g><g><path d="M8133.1 4s-9.1 0-9.1 9.1v43.8s-.1 9.1 9.1 9.1h43.8s9.1-.5 9.1-9.1V13.1s-.3-9.1-9.1-9.1h-43.8z" fill="none" stroke="#2e7fb0" stroke-width="6" stroke-miterlimit="10"/><path d="M8167.669638 20.872712l1.403009 1.396985c2.004297 1.995693 2.010966 5.095686.015273 7.099983l-19.757574 19.74255c-1.995693 2.004297-5.095686 2.010966-7.099984.015273l-1.403008-1.396985c-2.004298-1.995693-2.010967-5.095685-.015274-7.099983l19.75736-19.84255c1.995907-1.904297 5.1959-1.911181 7.100198.084727z" fill="#2e7fb0"/><path d="M8140.927353 22.269697l1.403009-1.396985c2.004298-1.995693 5.10429-1.989024 7.099984.015274l19.757359 19.842548c1.995693 2.004298 1.989024 5.104291-.015274 7.099984l-1.403008 1.396985c-2.004298 1.995693-5.104291 1.989024-7.099984-.015274l-19.757144-19.942548c-1.995908-1.904298-1.989024-5.104291.015058-6.999984z" fill="#2e7fb0"/></g><g><path d="M8203.1 4s-9.1 0-9.1 9.1v43.8s-.1 9.1 9.1 9.1h43.8s9.1-.5 9.1-9.1V13.1s-.3-9.1-9.1-9.1h-43.8z" fill="none" stroke="#2e7fb0" stroke-width="6" stroke-miterlimit="10"/><path d="M8237.682922 20.884636l1.401694 1.398304c2.00242 1.997578 2.006172 5.097576.008595 7.099995l-19.776138 19.723955c-1.997577 2.00242-5.097575 2.006172-7.099995.008595l-1.401693-1.398304c-2.00242-1.997578-2.006173-5.097575-.008595-7.099995l19.776016-19.823955c1.997698-1.90242 5.197696-1.906293 7.100116.091405z" fill="#2e7fb0"/><path d="M8210.915384 22.28294l1.401694-1.398304c2.00242-1.997577 5.102418-1.993824 7.099995.008595l19.776016 19.823955c1.997578 2.00242 1.993825 5.102417-.008595 7.099995l-1.401693 1.398304c-2.00242 1.997577-5.102418 1.993824-7.099995-.008595l-19.775895-19.923955c-1.997699-1.90242-1.993825-5.102417.008473-6.999995z" fill="#2e7fb0"/></g><g><path d="M8273.1 4s-9.1 0-9.1 9.1v43.8s-.1 9.1 9.1 9.1h43.8s9.1-.5 9.1-9.1V13.1s-.3-9.1-9.1-9.1h-43.8z" fill="none" stroke="#2e7fb0" stroke-width="6" stroke-miterlimit="10"/><path d="M8307.69241 20.893167l1.400753 1.399246c2.001076 1.998924 2.002744 5.098923.003821 7.1l-19.789395 19.710653c-1.998923 2.001076-5.098923 2.002744-7.099999.00382l-1.400753-1.399246c-2.001076-1.998923-2.002744-5.098923-.003821-7.099999l19.789341-19.810653c1.998977-1.901076 5.198977-1.902798 7.100053.09618z" fill="#2e7fb0"/><path d="M8280.906837 22.292413l1.400753-1.399246c2.001076-1.998923 5.101076-1.997255 7.1.003821l19.78934 19.810653c1.998924 2.001076 1.997255 5.101076-.00382 7.1l-1.400754 1.399246c-2.001076 1.998923-5.101076 1.997255-7.099999-.003821l-19.789287-19.910654c-1.998977-1.901076-1.997255-5.101075.003767-6.999999z" fill="#2e7fb0"/></g><g><path d="M8343.1 4s-9.1 0-9.1 9.1v43.8s-.1 9.1 9.1 9.1h43.8s9.1-.5 9.1-9.1V13.1s-.3-9.1-9.1-9.1h-43.8z" fill="none" stroke="#2e7fb0" stroke-width="6" stroke-miterlimit="10"/><path d="M8377.698102 20.898291l1.400189 1.399812c2.000269 1.99973 2.000686 5.09973.000955 7.1l-19.797349 19.702664c-1.99973 2.000269-5.09973 2.000686-7.1.000955l-1.400188-1.399811c-2.000269-1.999731-2.000686-5.099731-.000955-7.1l19.797335-19.802664c1.999744-1.90027 5.199744-1.9007 7.100013.099044z" fill="#2e7fb0"/><path d="M8350.90171 22.298103l1.400188-1.399812c2.000269-1.99973 5.100269-1.999314 7.1.000956l19.797335 19.802664c1.99973 2.000269 1.999314 5.100269-.000956 7.1l-1.400188 1.399811c-2.00027 1.999731-5.10027 1.999314-7.1-.000955l-19.797322-19.902664c-1.999744-1.90027-1.999314-5.10027.000942-7z" fill="#2e7fb0"/></g><g><path d="M8413.1 4s-9.1 0-9.1 9.1v43.8s-.1 9.1 9.1 9.1h43.8s9.1-.5 9.1-9.1V13.1s-.3-9.1-9.1-9.1h-43.8z" fill="none" stroke="#2e7fb0" stroke-width="6" stroke-miterlimit="10"/><path d="M8447.7 20.9l1.4 1.4c2 2 2 5.1 0 7.1l-19.8 19.7c-2 2-5.1 2-7.1 0l-1.4-1.4c-2-2-2-5.1 0-7.1l19.8-19.8c2-1.9 5.2-1.9 7.1.1z" fill="#2e7fb0"/><path d="M8420.9 22.3l1.4-1.4c2-2 5.1-2 7.1 0l19.8 19.8c2 2 2 5.1 0 7.1l-1.4 1.4c-2 2-5.1 2-7.1 0l-19.8-19.9c-2-1.9-2-5.1 0-7z" fill="#2e7fb0"/></g></svg>